<?xml version="1.0" encoding="UTF-8" standalone="no"?>
<svg width="899px" height="419px" viewBox="0 0 899 419" version="1.1" xmlns="http://www.w3.org/2000/svg" xmlns:xlink="http://www.w3.org/1999/xlink">
    <!-- Generator: Sketch 39.1 (31720) - http://www.bohemiancoding.com/sketch -->
    <title>Group 9</title>
    <desc>Created with Sketch.</desc>
    <defs></defs>
    <g id="Page-1" stroke="none" stroke-width="1" fill="none" fill-rule="evenodd">
        <g id="sponsoring-v2" transform="translate(-202.000000, -9842.000000)" fill="#5999FF">
            <g id="Group-9" transform="translate(0.000000, 9842.000000)">
                <g transform="translate(179.000000, -122.000000)">
                    <path d="M332.53258,421.201016 C332.53258,509.566576 260.450425,581.201016 171.53258,581.201016 C82.6147353,581.201016 10.53258,509.566576 10.53258,421.201016 L91.4140966,421.201016 C91.4140966,465.174399 127.284363,500.821869 171.53258,500.821869 C215.780797,500.821869 251.651063,465.174399 251.651063,421.201016 L332.53258,421.201016 Z" id="Combined-Shape-Copy" transform="translate(171.532580, 501.201016) rotate(9.000000) translate(-171.532580, -501.201016) "></path>
                    <path d="M607.857934,523.981949 L608,523.981949 L608,10 L441,10 L441,523.981949 L441.142066,523.981949 C441.047792,525.599931 441,527.23033 441,528.871841 C441,574.782256 478.384223,612 524.5,612 C570.615777,612 608,574.782256 608,528.871841 C608,527.23033 607.952208,525.599931 607.857934,523.981949 Z" id="Combined-Shape-Copy-2" transform="translate(524.500000, 311.000000) rotate(-9.000000) translate(-524.500000, -311.000000) "></path>
                    <circle id="Oval-4-Copy-13" cx="838" cy="125" r="84"></circle>
                </g>
            </g>
        </g>
    </g>
</svg>