<?xml version="1.0" encoding="UTF-8" standalone="no"?>
<svg width="396px" height="324px" viewBox="0 0 396 324" version="1.1" xmlns="http://www.w3.org/2000/svg" xmlns:xlink="http://www.w3.org/1999/xlink">
    <!-- Generator: Sketch 39.1 (31720) - http://www.bohemiancoding.com/sketch -->
    <title>Group 3</title>
    <desc>Created with Sketch.</desc>
    <defs></defs>
    <g id="Page-1" stroke="none" stroke-width="1" fill="none" fill-rule="evenodd">
        <g id="sponsoring-v2" transform="translate(-474.000000, -1708.000000)" fill="#5999FF">
            <g id="Group-3" transform="translate(466.000000, 1708.000000)">
                <path d="M120,224 C120,256.032515 94.0325155,282 62,282 C29.9674845,282 4,256.032515 4,224 L33.1374408,224 C33.1374408,239.940351 46.0596487,252.862559 62,252.862559 C77.9403513,252.862559 90.8625592,239.940351 90.8625592,224 L120,224 Z" id="Combined-Shape" transform="translate(62.000000, 253.000000) rotate(9.000000) translate(-62.000000, -253.000000) "></path>
                <path d="M219.948958,292.272563 L220,292.272563 L220,107 L160,107 L160,292.272563 L160.051042,292.272563 C160.017171,292.855789 160,293.443491 160,294.035199 C160,310.584301 173.431458,324 190,324 C206.568542,324 220,310.584301 220,294.035199 C220,293.443491 219.982829,292.855789 219.948958,292.272563 Z" id="Combined-Shape" transform="translate(190.000000, 215.500000) rotate(-9.000000) translate(-190.000000, -215.500000) "></path>
                <path d="M298,168 L238.156357,168 L238.013298,205.776536 C238.02628,206.350498 238.004978,206.928865 238.000774,207.511173 C237.883183,223.797403 251.184313,237 267.709679,237 C284.235044,237 297.726826,223.797403 297.844416,207.511173 C297.848621,206.928865 297.835671,206.350498 297.806032,205.776536 L298,168 Z" id="Combined-Shape"></path>
                <circle id="Oval-4" cx="267.5" cy="29.5" r="29.5"></circle>
                <path d="M413,142 C412.894608,100.008247 378.908633,66 337,66 C295.091367,66 261.105392,100.008247 261,142 L413,142 Z" id="Combined-Shape" transform="translate(337.000000, 104.000000) rotate(15.000000) translate(-337.000000, -104.000000) "></path>
                <path d="M108,141.99985 C107.960081,141.99995 107.920151,142 107.880208,142 C82.541269,142 62,121.852814 62,97 C62,72.1471863 82.541269,52 107.880208,52 C107.920151,52 107.960081,52.0000501 108,52.0001501 L108,141.999861 Z" id="Combined-Shape" transform="translate(85.000000, 97.000000) rotate(24.000000) translate(-85.000000, -97.000000) "></path>
            </g>
        </g>
    </g>
</svg>