<?xml version="1.0" encoding="UTF-8" standalone="no"?>
<svg width="484px" height="252px" viewBox="0 0 484 252" version="1.1" xmlns="http://www.w3.org/2000/svg" xmlns:xlink="http://www.w3.org/1999/xlink">
    <!-- Generator: Sketch 39.1 (31720) - http://www.bohemiancoding.com/sketch -->
    <title>Slice 1</title>
    <desc>Created with Sketch.</desc>
    <defs></defs>
    <g id="Page-1" stroke="none" stroke-width="1" fill="none" fill-rule="evenodd">
        <text id="CONF.EU" font-family="GTWalsheimProTrial-Medium, GT Walsheim Pro Trial" font-size="48" font-weight="400" letter-spacing="0.799999952" fill="#191919">
            <tspan x="131.534861" y="239.174389">CONF.EU</tspan>
        </text>
        <path d="M245.1614,103.2855 C271.6524,110.0775 277.0864,114.6055 277.0864,123.4355 L277.0864,123.8895 C277.0864,133.1725 268.4824,138.8325 254.2184,138.8325 C236.1054,138.8325 221.1614,131.3595 206.8984,119.5865 L196.5444,131.9885 C211.5784,143.2745 231.6794,154.3365 252.6504,154.2465 C295.3684,154.0625 294.4084,127.7495 294.4084,121.9385 C294.4084,99.4805 273.0504,92.3405 253.6394,87.9205 C228.8754,83.1965 208.8084,74.3995 209.2164,52.5325 C209.6234,30.6645 230.4754,18.3695 248.9774,18.4735 C263.6354,18.5565 274.6044,21.3595 298.1514,35.0195 L306.9724,22.2295 C290.8974,9.3245 271.1994,2.0795 248.1054,2.0795 C215.7284,2.0795 192.6344,25.6255 192.6344,54.3815 L192.6344,54.8335 C192.6344,86.3045 213.2374,95.1345 245.1614,103.2855" id="Fill-1" fill="#FFFFFF"></path>
        <path d="M245.1614,103.2855 C271.6524,110.0775 277.0864,114.6055 277.0864,123.4355 L277.0864,123.8895 C277.0864,133.1725 268.4824,138.8325 254.2184,138.8325 C236.1054,138.8325 221.1614,131.3595 206.8984,119.5865 L196.5444,131.9885 C211.5784,143.2745 231.6794,154.3365 252.6504,154.2465 C295.3684,154.0625 294.4084,127.7495 294.4084,121.9385 C294.4084,99.4805 273.0504,92.3405 253.6394,87.9205 C228.8754,83.1965 208.8084,74.3995 209.2164,52.5325 C209.6234,30.6645 230.4754,18.3695 248.9774,18.4735 C263.6354,18.5565 274.6044,21.3595 298.1514,35.0195 L306.9724,22.2295 C290.8974,9.3245 271.1994,2.0795 248.1054,2.0795 C215.7284,2.0795 192.6344,25.6255 192.6344,54.3815 L192.6344,54.8335 C192.6344,86.3045 213.2374,95.1345 245.1614,103.2855 L245.1614,103.2855 Z" id="Stroke-3" stroke="#262625" stroke-width="3"></path>
        <path d="M261.49,72.494 C234.094,65.474 227.301,62.078 227.301,51.664 L227.301,51.211 C227.301,43.513 234.321,35.136 247.678,35.136 C261.037,35.136 274.848,38.759 288.885,48.494 L298.178,35.02 C274.631,21.359 263.662,18.557 249.004,18.474 C230.502,18.369 209.65,30.664 209.242,52.532 C208.835,74.4 228.902,83.196 253.666,87.921 C273.077,92.34 294.434,99.481 294.434,121.938 C294.434,127.75 295.395,154.063 252.677,154.246 C231.706,154.337 211.605,143.275 196.571,131.989 L186.321,144.267 C205.34,161.247 229.565,169.624 253.566,169.624 C287.753,169.624 311.753,151.963 311.753,120.493 L311.753,120.04 C311.753,92.418 293.64,80.871 261.49,72.494" id="Fill-5" fill="#42CDB2"></path>
        <path d="M261.49,72.494 C234.094,65.474 227.301,62.078 227.301,51.664 L227.301,51.211 C227.301,43.513 234.321,35.136 247.678,35.136 C261.037,35.136 274.848,38.759 288.885,48.494 L298.178,35.02 C274.631,21.359 263.662,18.557 249.004,18.474 C230.502,18.369 209.65,30.664 209.242,52.532 C208.835,74.4 228.902,83.196 253.666,87.921 C273.077,92.34 294.434,99.481 294.434,121.938 C294.434,127.75 295.395,154.063 252.677,154.246 C231.706,154.337 211.605,143.275 196.571,131.989 L186.321,144.267 C205.34,161.247 229.565,169.624 253.566,169.624 C287.753,169.624 311.753,151.963 311.753,120.493 L311.753,120.04 C311.753,92.418 293.64,80.871 261.49,72.494 L261.49,72.494 Z" id="Stroke-7" stroke="#262625" stroke-width="3"></path>
        <path d="M220.2035,129.0487 C215.6695,126.3527 211.2675,123.1727 206.9285,119.5917 L186.3255,144.2727 C191.0175,148.4617 196.0275,152.1247 201.2725,155.2697 L220.2035,129.0487 Z" id="Fill-9" fill="#3EC446"></path>
        <path d="M220.2035,129.0487 C215.6695,126.3527 211.2675,123.1727 206.9285,119.5917 L186.3255,144.2727 C191.0175,148.4617 196.0275,152.1247 201.2725,155.2697 L220.2035,129.0487 L220.2035,129.0487 Z" id="Stroke-11" stroke="#1D1E1C" stroke-width="3"></path>
        <path d="M99.4099,86.2372 C99.4099,93.7932 93.2849,99.9182 85.7289,99.9182 C78.1729,99.9182 72.0469,93.7932 72.0469,86.2372 C72.0469,78.6812 78.1729,72.5562 85.7289,72.5562 C93.2849,72.5562 99.4099,78.6812 99.4099,86.2372" id="Fill-13" fill="#42CDB2"></path>
        <path d="M99.4099,86.2372 C99.4099,93.7932 93.2849,99.9182 85.7289,99.9182 C78.1729,99.9182 72.0469,93.7932 72.0469,86.2372 C72.0469,78.6812 78.1729,72.5562 85.7289,72.5562 C93.2849,72.5562 99.4099,78.6812 99.4099,86.2372 L99.4099,86.2372 Z" id="Stroke-15" stroke="#080B0B" stroke-width="3"></path>
        <path d="M26.126,146.076 C10.041,130.067 2,110.01 2,85.901 C2.073,62.318 10.134,42.483 26.182,26.398 C42.228,10.316 62.119,2.272 85.853,2.272 C109.811,2.272 130.372,9.737 147.539,24.663 L125.148,49.181 C113.729,40.224 100.631,35.746 85.853,35.746 C70.776,35.822 58.629,40.524 49.412,49.852 C40.193,59.183 35.586,71.123 35.586,85.677 C35.659,101.277 40.325,113.666 49.58,122.846 C58.834,132.026 71,136.616 86.077,136.616 C101.152,136.616 114.177,132.176 125.148,123.294 L147.539,147.811 C130.447,162.74 109.884,170.202 85.853,170.202 C62.119,170.129 42.209,162.085 26.126,146.076" id="Fill-17" fill="#FFFFFF"></path>
        <path d="M26.126,146.076 C10.041,130.067 2,110.01 2,85.901 C2.073,62.318 10.134,42.483 26.182,26.398 C42.228,10.316 62.119,2.272 85.853,2.272 C109.811,2.272 130.372,9.737 147.539,24.663 L125.148,49.181 C113.729,40.224 100.631,35.746 85.853,35.746 C70.776,35.822 58.629,40.524 49.412,49.852 C40.193,59.183 35.586,71.123 35.586,85.677 C35.659,101.277 40.325,113.666 49.58,122.846 C58.834,132.026 71,136.616 86.077,136.616 C101.152,136.616 114.177,132.176 125.148,123.294 L147.539,147.811 C130.447,162.74 109.884,170.202 85.853,170.202 C62.119,170.129 42.209,162.085 26.126,146.076 L26.126,146.076 Z" id="Stroke-19" stroke="#1D1E1C" stroke-width="3"></path>
        <path d="M136.6879,135.947 C122.0049,147.573 105.8849,152.363 85.7099,152.363 C65.5329,152.363 49.2499,146.356 36.8659,134.34 C24.4799,122.325 18.2359,106.111 18.1379,85.694 C18.1379,66.645 24.3039,51.017 36.6419,38.805 C48.9769,26.595 64.4599,18.626 84.6379,18.528 C104.4149,18.528 121.1939,25.061 136.4759,36.783 L125.1539,49.181 C113.7349,40.224 100.6359,35.746 85.8579,35.746 C70.7809,35.822 58.6349,40.524 49.4179,49.852 C40.1989,59.183 35.5909,71.123 35.5909,85.677 C35.6649,101.277 40.3299,113.666 49.5859,122.846 C58.8389,132.026 71.0049,136.616 86.0819,136.616 C101.1569,136.616 114.1819,132.177 125.1539,123.294 L136.5139,135.733 L136.6879,135.947 Z" id="Fill-21" fill="#2176FF"></path>
        <path d="M136.6879,135.947 C122.0049,147.573 105.8849,152.363 85.7099,152.363 C65.5329,152.363 49.2499,146.356 36.8659,134.34 C24.4799,122.325 18.2359,106.111 18.1379,85.694 C18.1379,66.645 24.3039,51.017 36.6419,38.805 C48.9769,26.595 64.4599,18.626 84.6379,18.528 C104.4149,18.528 121.1939,25.061 136.4759,36.783 L125.1539,49.181 C113.7349,40.224 100.6359,35.746 85.8579,35.746 C70.7809,35.822 58.6349,40.524 49.4179,49.852 C40.1989,59.183 35.5909,71.123 35.5909,85.677 C35.6649,101.277 40.3299,113.666 49.5859,122.846 C58.8389,132.026 71.0049,136.616 86.0819,136.616 C101.1569,136.616 114.1819,132.177 125.1539,123.294 L136.5139,135.733 L136.6879,135.947 L136.6879,135.947 Z" id="Stroke-23" stroke="#080B0B" stroke-width="3"></path>
        <path d="M414.9246,103.289 C441.4376,110.087 446.8756,114.618 446.8756,123.456 L446.8756,123.91 C446.8756,133.201 438.2646,138.865 423.9896,138.865 C405.8616,138.865 390.9056,131.386 376.6296,119.604 L366.2676,132.016 C366.2726,132.02 366.2786,132.024 366.2836,132.028 L366.2936,132.016 C381.3376,143.309 401.4486,154.377 422.4316,154.292 C465.1726,154.103 464.2116,127.773 464.2116,121.957 C464.2116,99.481 442.8366,92.335 423.4096,87.912 C398.6256,83.183 378.5416,74.38 378.9496,52.494 C379.3576,30.608 400.2266,18.303 418.7436,18.408 L418.7586,18.408 L418.7706,18.408 C429.6626,18.469 438.5246,20.036 452.0106,26.433 L462.1676,12.572 C449.1946,5.729 434.4076,2 417.8706,2 C385.4676,2 362.3546,25.565 362.3546,54.344 L362.3546,54.797 C362.3546,86.294 382.9746,95.132 414.9246,103.289" id="Fill-25" fill="#FFFFFF"></path>
        <path d="M414.9246,103.289 C441.4376,110.087 446.8756,114.618 446.8756,123.456 L446.8756,123.91 C446.8756,133.201 438.2646,138.865 423.9896,138.865 C405.8616,138.865 390.9056,131.386 376.6296,119.604 L366.2676,132.016 C366.2726,132.02 366.2786,132.024 366.2836,132.028 L366.2936,132.016 C381.3376,143.309 401.4486,154.377 422.4316,154.292 C465.1726,154.103 464.2116,127.773 464.2116,121.957 C464.2116,99.481 442.8366,92.335 423.4096,87.912 C398.6256,83.183 378.5416,74.38 378.9496,52.494 C379.3576,30.608 400.2266,18.303 418.7436,18.408 L418.7586,18.408 L418.7706,18.408 C429.6626,18.469 438.5246,20.036 452.0106,26.433 L462.1676,12.572 C449.1946,5.729 434.4076,2 417.8706,2 C385.4676,2 362.3546,25.565 362.3546,54.344 L362.3546,54.797 C362.3546,86.294 382.9746,95.132 414.9246,103.289 L414.9246,103.289 Z" id="Stroke-27" stroke="#262625" stroke-width="3"></path>
        <path d="M431.2666,72.4721 C403.8486,65.4471 397.0496,62.0481 397.0496,51.6251 L397.0496,51.1711 C397.0496,43.4671 404.0756,35.0831 417.4436,35.0831 C425.5786,35.0831 433.8826,36.4371 442.3016,39.6841 L452.0106,26.4331 C438.5246,20.0361 429.6626,18.4691 418.7706,18.4071 C400.2536,18.3031 379.3836,30.6081 378.9756,52.4941 C378.5686,74.3801 398.6516,83.1831 423.4356,87.9111 C442.8636,92.3351 464.2386,99.4811 464.2386,121.9571 C464.2386,127.7731 465.1996,154.1081 422.4456,154.2921 C401.4576,154.3821 381.3406,143.3111 366.2936,132.0161 L356.0356,144.3041 C375.0706,161.2981 399.3156,169.6821 423.3356,169.6821 C457.5516,169.6821 481.5706,152.0071 481.5706,120.5111 L481.5706,120.0571 C481.5706,92.4121 463.4436,80.8561 431.2666,72.4721" id="Fill-29" fill="#EB3A3A"></path>
        <path d="M431.2666,72.4721 C403.8486,65.4471 397.0496,62.0481 397.0496,51.6251 L397.0496,51.1711 C397.0496,43.4671 404.0756,35.0831 417.4436,35.0831 C425.5786,35.0831 433.8826,36.4371 442.3016,39.6841 L452.0106,26.4331 C438.5246,20.0361 429.6626,18.4691 418.7706,18.4071 C400.2536,18.3031 379.3836,30.6081 378.9756,52.4941 C378.5686,74.3801 398.6516,83.1831 423.4356,87.9111 C442.8636,92.3351 464.2386,99.4811 464.2386,121.9571 C464.2386,127.7731 465.1996,154.1081 422.4456,154.2921 C401.4576,154.3821 381.3406,143.3111 366.2936,132.0161 L356.0356,144.3041 C375.0706,161.2981 399.3156,169.6821 423.3356,169.6821 C457.5516,169.6821 481.5706,152.0071 481.5706,120.5111 L481.5706,120.0571 C481.5706,92.4121 463.4436,80.8561 431.2666,72.4721 L431.2666,72.4721 Z" id="Stroke-31" stroke="#262625" stroke-width="3"></path>
        <path d="M462.2049,12.5774 L442.3109,39.6774 C447.7339,41.7664 453.2049,44.6334 458.7109,48.4524 L468.0109,34.9674 C468.0049,34.9634 467.9989,34.9594 467.9919,34.9564 L476.8129,22.1664 C472.2379,18.4944 467.3609,15.2974 462.2049,12.5774" id="Fill-33" fill="#FBC227"></path>
        <path d="M462.2049,12.5774 L442.3109,39.6774 C447.7339,41.7664 453.2049,44.6334 458.7109,48.4524 L468.0109,34.9674 C468.0049,34.9634 467.9989,34.9594 467.9919,34.9564 L476.8129,22.1664 C472.2379,18.4944 467.3609,15.2974 462.2049,12.5774 L462.2049,12.5774 Z" id="Stroke-35" stroke="#1D1E1C" stroke-width="3"></path>
    </g>
</svg>