<svg xmlns="http://www.w3.org/2000/svg" xmlns:xlink="http://www.w3.org/1999/xlink" viewBox="0 0 27 27"><defs><style>.a{fill:url(#a);}.b{fill:#ffe90a;}.c{fill:#2b2b2b;}.d{fill:none;stroke:#2b2b2b;}</style><linearGradient id="a" x1="-134.86" y1="163.36" x2="-134.86" y2="162.36" gradientTransform="matrix(25, 0, 0, -25, 3385, 4085)" gradientUnits="userSpaceOnUse"><stop offset="0" stop-color="#ffe90a"/><stop offset="1" stop-color="#feba00"/></linearGradient></defs><title>emoji-cool</title><circle class="a" cx="13.5" cy="13.5" r="12.5"/><path class="b" d="M13.5,26.5a13,13,0,1,1,13-13A13,13,0,0,1,13.5,26.5Zm0-25a12,12,0,1,0,12,12A12,12,0,0,0,13.5,1.5Z"/><path class="c" d="M1,7V9H3A5,5,0,0,0,13,9h1A5,5,0,0,0,24,9h2V7Z"/><path class="d" d="M8,18a11,11,0,0,0,5.5,2A11,11,0,0,0,19,18"/></svg>