<?xml version="1.0" encoding="UTF-8"?>
<svg width="480px" height="90px" viewBox="0 0 480 90" version="1.1" xmlns="http://www.w3.org/2000/svg" xmlns:xlink="http://www.w3.org/1999/xlink">
    <g>
        <path d="M20.5,63.8 C20.5,73.6 20.4,78.4 13,85.8 C10,88.8 8.3,89.6 6.5,89.6 C2.7,89.6 0,86.2 0,83.4 C0,80.8 2.3,79.7 4.1,77.9 C7.9,74.1 7.9,69.6 7.9,63.6 L7.9,33.6 C7.9,31.4 7.9,29.8 8.9,28.6 C9.9,27.3 11.5,26.8 14.3,26.8 C17.1,26.8 18.7,27.4 19.7,28.6 C20.7,29.9 20.7,31.4 20.7,33.6 L20.7,63.8 L20.5,63.8 Z"></path>
        <path d="M55.2,50.5 C59.4,53.3 63.1,57.2 63.1,64 C63.1,74.2 54.6,79.9 44.4,79.9 C40.8,79.9 36.9,79.2 33.5,77.5 C30.9,76.2 28.9,74.5 28.9,71.7 C28.9,69.1 30.8,65.6 34,65.6 C37.2,65.6 39.7,69.3 44.6,69.3 C48.1,69.3 50.5,67.5 50.5,64.6 C50.5,61.5 47.6,59.7 44.1,57.9 C38,54.8 29.7,51 29.7,41.5 C29.7,32.2 37.7,26.3 47.7,26.3 C54.8,26.3 62.3,29.3 62.3,34.1 C62.3,36.7 60.1,40 57,40 C54.1,40 51.5,37 47.5,37 C44.4,37 42.5,38.7 42.5,40.8 C42.3,44.9 49.5,46.7 55.2,50.5 L55.2,50.5 Z"></path>
        <path d="M94.8,68.4 C97,68.4 98.9,68 100.9,67.2 C103.3,66.2 104.8,65.1 106.5,65.1 C109.8,65.1 111.6,69 111.6,71.4 C111.6,73.4 110.3,75.1 108,76.5 C104.3,78.7 98.9,79.8 94.1,79.8 C79.4,79.8 67.9,69.9 67.9,52.9 C67.9,34.9 80.6,26 94.4,26 C99.4,26 104.7,27.2 108,29.2 C110.5,30.7 111.6,32.4 111.6,34.4 C111.6,36.9 109.9,40.8 106.5,40.8 C104.7,40.8 103.1,39.8 100.5,38.7 C98.5,37.9 96.5,37.4 94.2,37.4 C87.1,37.4 80.7,42 80.7,52.5 C80.7,63.6 87.4,68.4 94.8,68.4 L94.8,68.4 Z"></path>
        <path d="M143,26 C159.8,26 170.4,37.5 170.4,52.9 C170.4,68.6 159.5,80.1 142.7,80.1 C125.9,80.1 115.3,68.6 115.3,53.2 C115.4,37.4 126.3,26 143,26 L143,26 Z M142.9,69.2 C151.9,69.2 157.6,63.3 157.6,53 C157.6,42.7 151.8,36.7 142.9,36.7 C133.9,36.7 128.2,42.6 128.2,52.9 C128.2,63.3 134,69.2 142.9,69.2 L142.9,69.2 Z"></path>
        <path d="M191.2,72.5 C191.2,74.7 191.2,76.2 190.2,77.5 C189.2,78.7 187.7,79.4 185.1,79.4 C182.4,79.4 180.9,78.7 179.9,77.5 C178.9,76.2 178.9,74.7 178.9,72.5 L178.9,31.5 C178.9,28.5 181.1,26.5 185.6,26.5 C190.2,26.5 192,28.5 194.1,31.2 L214.8,58.3 L214.8,33.6 C214.8,31.4 214.8,29.9 215.8,28.6 C216.8,27.4 218.3,26.7 220.9,26.7 C223.6,26.7 225.1,27.4 226.1,28.6 C227.1,29.9 227.1,31.3 227.1,33.6 L227.1,74.6 C227.1,78 224.9,79.7 221.2,79.7 C217.4,79.7 215.5,77.9 213.3,75.1 L191.2,46.8 L191.2,72.5 L191.2,72.5 Z"></path>
        <path d="M251.1,72.5 C251.1,74.7 251.1,76.2 250.1,77.5 C249.1,78.8 247.5,79.4 244.9,79.4 C242.3,79.4 240.6,78.8 239.6,77.5 C238.6,76.2 238.6,74.7 238.6,72.5 L238.6,33 C238.6,28.8 240.3,27.2 244.5,27.2 L263,27.2 C265.2,27.2 266.6,27.2 267.9,28.1 C269.1,29 269.8,30.4 269.8,32.8 C269.8,35.3 269.1,36.7 267.9,37.6 C266.6,38.5 265.2,38.5 263,38.5 L251,38.5 L251,47.8 L260.8,47.8 C263,47.8 264.4,47.8 265.7,48.7 C266.9,49.6 267.6,50.9 267.6,53.3 C267.6,55.8 266.9,57.1 265.7,58 C264.4,58.9 263,58.9 260.8,58.9 L251,58.9 L251,72.5 L251.1,72.5 Z"></path>
        <path d="M276.2,79.7 C271.9,79.7 269.1,76.9 269.1,72.6 C269.1,68.4 271.9,65.5 276.2,65.5 C280.5,65.5 283.3,68.4 283.3,72.6 C283.3,76.9 280.5,79.7 276.2,79.7 L276.2,79.7 Z"></path>
        <path d="M304,46.4 L312.7,46.4 C314.9,46.4 316.4,46.4 317.6,47.2 C318.6,47.8 319.5,49.2 319.5,51.8 C319.5,54.4 318.5,55.7 317.6,56.4 C316.4,57.2 314.9,57.2 312.7,57.2 L304,57.2 L304,68.3 L317.4,68.3 C319.6,68.3 321.1,68.3 322.3,69.1 C323.3,69.7 324.2,71.1 324.2,73.7 C324.2,76.3 323.2,77.6 322.3,78.3 C321.1,79.1 319.6,79.1 317.4,79.1 L297.8,79.1 C293.5,79.1 291.9,77.4 291.9,73.2 L291.9,33.2 C291.9,28.9 293.5,27.3 297.8,27.3 L315.8,27.3 C318,27.3 319.5,27.3 320.7,28.1 C321.7,28.7 322.6,30.1 322.6,32.7 C322.6,35.3 321.6,36.6 320.7,37.3 C319.5,38.1 318,38.1 315.8,38.1 L304,38.1 L304,46.4 L304,46.4 Z"></path>
        <path d="M363.4,66 C365.6,63.3 365.7,59.6 365.7,56.7 L365.7,33.6 C365.7,31.4 365.7,29.8 366.7,28.6 C367.7,27.3 369.3,26.8 372,26.8 C374.7,26.8 376.3,27.4 377.3,28.6 C378.3,29.9 378.3,31.4 378.3,33.6 L378.3,56 C378.3,61.5 378.3,67.7 373.7,73.1 C370.3,77.1 364.6,80 355,80 C345.3,80 339.9,77 336.5,73.1 C331.9,67.6 331.9,61.6 331.9,55.9 L331.9,33.6 C331.9,31.4 331.9,29.8 332.9,28.6 C333.9,27.3 335.5,26.8 338.3,26.8 C341.1,26.8 342.7,27.4 343.7,28.6 C344.7,29.9 344.7,31.4 344.7,33.6 L344.7,56.7 C344.7,59.6 344.7,63.3 346.9,66 C348.6,68 351.3,69.2 355.3,69.2 C359,69.2 361.7,68 363.4,66 L363.4,66 Z"></path>
        <path d="M476.7,0.6 L403.2,0.6 C401.4,0.6 399.9,2.1 399.9,3.9 L399.9,77.4 C399.9,79.2 401.4,80.7 403.2,80.7 L476.7,80.7 C478.5,80.7 480,79.2 480,77.4 L480,3.9 C480,2.1 478.5,0.6 476.7,0.6 L476.7,0.6 Z M463.9,57.2 C459.1,62 451.4,69.7 450.1,71 C448.8,69.7 441.1,62 436.3,57.2 C432,52.9 432.1,46.6 436,42.8 C439.9,38.9 446.2,38.9 450.1,42.8 C454,38.9 460.3,38.9 464.2,42.8 C468.1,46.6 468.2,52.9 463.9,57.2 L463.9,57.2 Z"></path>
    </g>
</svg>
