<svg version="1.1" id="logo_Layer_1" xmlns="http://www.w3.org/2000/svg" xmlns:xlink="http://www.w3.org/1999/xlink" x="0px" y="0px" width="43px" height="36px" viewBox="-20 -20 146 128.157" enable-background="new 0 0 100.542 83.226" shape-rendering="geometricPrecision" xml:space="preserve">
<path id="logo_svg_path" fill="#fab23a" stroke-width="1" stroke="#fab23a" d="M30.779,87.342c-10.015,0-15.483-5.632-15.814-16.283c-0.115-3.693,1.021-10.996,4.603-19.425l4.601-11.091
	c0.991-2.274,1.971-4.424,2.882-6.42c2.838-6.22,4.077-9.091,5.609-13.294c0.249-0.684,0.164-1.371-0.236-1.943
	c-0.585-0.834-1.76-1.293-3.313-1.293c-1.165,0-5.265,0.331-9.194,4.565c-2.986,3.218-4.644,6.94-4.544,10.21
	c0.023,0.738,0.069,1.364,0.198,2.001c0.449,2.261-0.557,4.408-2.507,5.348c-1.106,0.533-2.107,0.762-3.141,0.762
	c-3.528,0-6.446-2.584-6.792-6.012c-0.059-0.598-0.098-1.194-0.115-1.776c-0.095-3.092,0.464-11.025,7.69-17.914
	c9.242-8.81,18.947-10.659,25.459-10.659c9.34,0,12.904,2.889,13.145,10.661c0.175,5.717-2.874,14.076-7.505,24.868
	c-1.647,3.829-3.695,8.593-5.807,13.938c-2.289,5.871-3.174,9.813-3.056,13.609c0.108,3.591,2.325,5.82,5.781,5.82
	c3.916,0,7.334-3.764,11.26-9.417l0.207-0.3l-0.01-0.367c-0.395-14.747,4.203-30.483,10.931-37.421
	c2.173-2.245,4.416-3.385,6.659-3.385c4.659,0,7.523,2.661,7.659,7.118c0.387,12.504-7.647,26.511-13.724,35.958l-0.271,0.425
	l0.136,0.484c1.25,4.439,3.172,6.689,5.715,6.689c1.964,0,4.925-0.585,7.886-3.379c6.841-6.461,13.163-15.824,13.094-40.379
	c-0.031-3.513-1.088-7.324-2.109-11.011c-1.376-4.957-2.672-9.638-0.96-11.985c0.857-1.178,2.507-1.802,5.045-1.907l0.487-0.01
	c8.981,0,12.504,10.8,12.791,20.048c0.578,18.808-6.93,39.586-18.685,51.708c-6.172,6.366-12.991,9.731-19.72,9.731
	c-5.214,0-9.474-2.862-12.319-8.274l-0.744-1.422l-1.075,1.193C44.775,83.993,38.168,87.342,30.779,87.342" style="fill: rgb(250, 178, 58); stroke-dasharray: 617.283, 617.283; stroke-dashoffset: 0;"></path>
</svg>
