<svg id="9251941f-3dfd-4403-9c6a-66cfafa7c91c" data-name="svg2" xmlns="http://www.w3.org/2000/svg" viewBox="0 0 2002.67 1237.33"><title>logo-google</title><rect width="2002.67" height="1237.33" style="fill:none"/><g id="38a5da29-0775-4a38-8aea-8070fd7bba14" data-name="g20"><g id="5b5f79b2-4184-4b3d-bb69-1a0fef1eb473" data-name="path22"><path d="M1112.08,682.86l-73.56,127.87H845.87a48,48,0,0,1-41.6-24.09L648.43,514.91a48,48,0,0,1,0-47.71l59.3-103.37L780.94,491,891.3,682.86Z" transform="translate(0 0)" style="fill:#f8bb16"/></g></g><g id="043de542-9cfa-40c8-94ac-4501c3726581" data-name="g24"><g id="169a25a5-e344-453d-9adf-6293f6def283" data-name="path26"><path d="M1355,514.91,1199.16,786.64a48,48,0,0,1-41.59,24.09h-119l73.56-127.87L1222.49,491,1112.08,299.24h146.57l96.34,168a48,48,0,0,1,0,47.71" transform="translate(0 0)" style="fill:#ea4334"/></g></g><g id="fe54a962-696c-47a1-88fd-c3eb47928fb8" data-name="g28"><g id="e98f7587-e6ea-4fb2-8906-c38e61467617" data-name="path30"><path d="M1258.66,299.24H891.3L780.94,491,707.73,363.82l96.54-168.35a48,48,0,0,1,41.6-24.09h311.69a48,48,0,0,1,41.59,24.09Z" transform="translate(0 0)" style="fill:#0074bc"/></g></g><g id="bc64dca2-a973-4d1f-b92f-a32c4806107a" data-name="g32"><g id="23135760-7455-4ba1-80d0-356542d9f03c" data-name="path34"><path d="M1112.08,299.24,1222.46,491,1112.08,682.86H891.34L780.94,491,891.3,299.24Z" transform="translate(0 0)" style="fill:#e2e3e4"/></g></g><g id="fa175c07-055e-48fe-9a63-7f4819aa344f" data-name="g36"><g id="61875440-f305-4c15-b01a-1f459ff2887e" data-name="path38"><path d="M1001.71,395.14A95.91,95.91,0,1,1,905.81,491a95.91,95.91,0,0,1,95.9-95.91" transform="translate(0 0)" style="fill:#fff"/></g></g><g id="a169165d-51eb-485c-82f5-a909002b5d38" data-name="g190"><g id="839b68bc-7c10-4277-93eb-99626a6ab59c" data-name="g198"><g id="183703f2-a7ce-4c88-8774-f6f6cdc6de31" data-name="path200"><path d="M763.51,1005.57c0-36.35,27.48-63.83,63.49-63.83,18.43,0,34,7.34,44.89,20L861,972.29c-8.53-10.58-20-15.53-34-15.53-25.77,0-47.45,18.77-47.45,48.81s21.68,48.81,47.45,48.81c15.37,0,28.33-7.17,37.55-17.75l10.92,10.92c-10.75,12.8-28,21.84-48.47,21.84-36,0-63.49-27.47-63.49-63.83" transform="translate(0 0)" style="fill:#767576"/></g></g><g id="4cf14f52-2064-4b8a-83a7-f93e8b27dbd1" data-name="path202"><path d="M887.75,944.46h15.7v122.2h-15.7Z" transform="translate(0 0)" style="fill:#767576"/></g><g id="fbc3c2ff-1b49-4474-bfe5-6edf4fcb5a01" data-name="g204"><g id="ca820e26-550c-4895-b4c9-d53f50aac934" data-name="path206"><path d="M985.55,1024.85c0-19.11-13.31-30.21-27.31-30.21s-27.31,11.09-27.31,30.21,13.31,30.21,27.31,30.21,27.31-11.09,27.31-30.21m15.7,0c0,25.43-17.92,44.55-43,44.55s-43-19.11-43-44.55,17.92-44.54,43-44.54,43,19.11,43,44.54" transform="translate(0 0)" style="fill:#767576"/></g></g><g id="99d7fb92-b369-4f73-99da-1f87b2facd58" data-name="g208"><g id="13a3caaf-8b1f-4915-ae63-b6460a634932" data-name="path210"><path d="M1072.24,1066.67v-11.6h-.68c-4.6,7.68-15,14.33-26.45,14.33-21.5,0-31.92-14.51-31.92-35.16V983h15.7v48.64c0,17.41,8.7,23.39,20.65,23.39,13.65,0,22-13.14,22-25.94V983h15.7v83.63Z" transform="translate(0 0)" style="fill:#767576"/></g></g><g id="3213bd7f-a58d-4d55-b996-5c6b186ca167" data-name="g212"><g id="d429a9c4-c914-4e09-b24a-b3bea24ef22a" data-name="path214"><path d="M1168.84,1024.85c0-19.11-12.63-30.21-26.63-30.21s-26.63,11.44-26.63,30.21,12.63,30.21,26.63,30.21,26.63-11.09,26.63-30.21m-69,0c0-25.6,18.6-44.54,39.77-44.54,13.31,0,23.72,6.66,28.5,14.33h.69l-.69-11.6V944.46h15.71v122.2h-15v-11.6h-.69c-4.78,7.68-15.19,14.33-28.5,14.33-21.17,0-39.77-18.94-39.77-44.55" transform="translate(0 0)" style="fill:#767576"/></g></g><g id="2d3ab2e6-adc5-4f6d-8380-a9b3a092d3f1" data-name="g216"><g id="38aae729-de91-4e4d-bab9-4237d88a6a38" data-name="path218"><path d="M1268.68,1002.15a21.34,21.34,0,1,0,0-42.67H1242.4v42.67Zm-42,64.52V944.46h41.65c20.31,0,38.23,15,38.23,36.35s-17.92,36.35-38.23,36.35H1242.4v49.49Z" transform="translate(0 0)" style="fill:#767576"/></g></g><g id="76af20e5-384c-4659-80f9-bb33d8ba2e4d" data-name="path220"><path d="M1317.66,944.46h15.7v122.2h-15.7Z" transform="translate(0 0)" style="fill:#767576"/></g><g id="488b9a4a-3fdd-47bf-9472-f8cd5f695d0f" data-name="g222"><g id="55a89ce2-566c-438b-9136-8cb7755923f1" data-name="path224"><path d="M1406.23,1030.66s-6.66-5.46-20-5.46c-16.55,0-23,8.88-23,16.55,0,8.88,9.21,13.32,17.41,13.32,12.46,0,25.6-10.76,25.6-24.41m-59.4,10.75c0-18.94,17.07-29.18,36.69-29.18,11.27,0,19.46,3.24,22.7,5.12V1015c0-12.63-10.07-20.31-21.85-20.31-8.7,0-17.07,4.27-20,12.12l-14.33-6.15c2.9-7.68,13-20.31,34-20.31,20.49,0,37.21,12.29,37.21,35.84v50.52h-15v-11.6h-.68c-4.61,7-13.15,14.33-27.48,14.33-17.07,0-31.23-10.58-31.23-28" transform="translate(0 0)" style="fill:#767576"/></g></g><g id="e5b98720-b581-4225-8e11-de5f14b439fc" data-name="g226"><g id="6997ddd3-994d-4b5f-b33e-2d19a3d3f20b" data-name="path228"><path d="M1443.95,1041.23V997.37h-14.68V983h14.68V957.43h15.7V983h20.48v14.33h-20.48V1040c0,9.39,3.92,13.65,11.27,13.65a15.81,15.81,0,0,0,7.17-1.37l5.46,13.49c-3.58,1.54-7.33,2.22-12.62,2.22-17.58,0-27-9.73-27-26.8" transform="translate(0 0)" style="fill:#767576"/></g></g><g id="b3b17f54-e42b-4b63-9b56-44523663cbcf" data-name="g230"><g id="690ad63b-71fb-4805-aeaf-7fe58164ce36" data-name="path232"><path d="M1546,946l-5.46,13.48a15.35,15.35,0,0,0-7.17-1.36c-7.85,0-14,4.6-14,14.33V983h21.85v14.33h-21.85v69.3h-15.7v-69.3H1488V983h15.7V971.94c0-17.07,12.12-28.16,29.7-28.16,5.29,0,9,.68,12.63,2.22" transform="translate(0 0)" style="fill:#767576"/></g></g><g id="27ead12d-e311-412e-84ef-d031d7c26a2b" data-name="g234"><g id="d8540354-ba15-482c-84d5-d1d6eb6df6b1" data-name="path236"><path d="M1615.81,1024.85c0-19.11-13.31-30.21-27.31-30.21s-27.31,11.09-27.31,30.21,13.31,30.21,27.31,30.21,27.31-11.09,27.31-30.21m15.7,0c0,25.43-17.92,44.55-43,44.55s-43-19.11-43-44.55,17.92-44.54,43-44.54,43,19.11,43,44.54" transform="translate(0 0)" style="fill:#767576"/></g></g><g id="30578439-0856-48c8-8db0-528f3fa0b054" data-name="g238"><g id="190943e8-7d30-4ffd-acbd-ebcdfa562996" data-name="path240"><path d="M1644.14,1066.67V983h15v13.66h.68c3.41-9.56,15.53-15.7,24.23-15.7a28.62,28.62,0,0,1,11.78,2l-6,14.68a23.46,23.46,0,0,0-8.37-1.19c-10.75,0-21.67,9-21.67,24.41v45.74Z" transform="translate(0 0)" style="fill:#767576"/></g></g><g id="ba583fe2-5d7f-48a0-bcc4-05732c09723a" data-name="g242"><g id="bae26ec0-0aa8-43c7-8cf7-ce0963011c9b" data-name="path244"><path d="M1704.38,983h15v11.6h.69c4.78-8,15.87-14.33,25.77-14.33,13.48,0,22.19,6.14,26.45,16a34,34,0,0,1,29.19-16c20.48,0,29.87,14.51,29.87,35.16v51.2h-15.71v-48.81c0-17.41-6.66-23.21-18.6-23.21-12.8,0-21.34,13-21.34,25.77v46.26H1760v-48.81c0-17.41-6.66-23.21-18.6-23.21-12.8,0-21.33,13-21.33,25.77v46.26h-15.7Z" transform="translate(0 0)" style="fill:#767576"/></g></g><g id="d7ffcfae-15e6-4b9b-9da1-8971ac1b99f5" data-name="g192"><g id="efeb7b4c-be4a-44dc-a9d6-c3bc638f33ad" data-name="g246"><g id="9c18ca8a-4cf5-4cb0-80c0-a776d19e407e" data-name="g248"><g id="934a669e-2baa-478d-8bc3-479345ffa01e" data-name="g250"><g id="412dbf99-eceb-4c57-a4da-21179609eb63" data-name="g256"><g id="6a13e518-2581-40dd-8547-fd6d1f476856" data-name="path258"><path d="M171.63,999.42c0-38.57,32.43-70,71-70,21.33,0,36.53,8.36,48,19.29l-13.48,13.48a48.75,48.75,0,0,0-34.48-13.65c-28.16,0-50.18,22.7-50.18,50.86s22,50.86,50.18,50.86c18.26,0,28.67-7.34,35.33-14,5.46-5.46,9-13.31,10.41-24.06H242.63V993.11H307a62.33,62.33,0,0,1,1,11.95c0,14.34-3.93,32.09-16.56,44.72-12.29,12.8-28,19.63-48.81,19.63-38.57,0-71-31.4-71-70" transform="translate(0 0)" style="fill:#767576"/></g></g><g id="9998fa04-e2cd-4bce-ac50-a690d0d443d1" data-name="g260"><g id="0bd088c4-fd5c-48bb-be67-aeec67ec9240" data-name="path262"><path d="M360,1051.65c-13.65,0-25.43-11.26-25.43-27.31,0-16.21,11.78-27.31,25.43-27.31s25.43,11.09,25.43,27.31c0,16-11.78,27.31-25.43,27.31m0-72.37c-24.92,0-45.23,18.95-45.23,45.06,0,25.94,20.31,45.06,45.23,45.06s45.23-19.12,45.23-45.06c0-26.11-20.31-45.06-45.23-45.06" transform="translate(0 0)" style="fill:#767576"/></g></g><g id="6f9a3c8b-2d69-43b2-a596-f057c0d3a59b" data-name="g264"><g id="7ae6332a-fef4-4261-83ab-1eb9bd9a9cb1" data-name="path266"><path d="M458.67,1051.65c-13.65,0-25.43-11.26-25.43-27.31,0-16.21,11.78-27.31,25.43-27.31s25.43,11.09,25.43,27.31c0,16-11.78,27.31-25.43,27.31m0-72.37c-24.92,0-45.23,18.95-45.23,45.06,0,25.94,20.31,45.06,45.23,45.06s45.23-19.12,45.23-45.06c0-26.11-20.31-45.06-45.23-45.06" transform="translate(0 0)" style="fill:#767576"/></g></g><g id="2a36df74-0acc-45c1-af16-81d975606de1" data-name="g268"><g id="6342a819-0646-443e-87bd-bf968fee392b" data-name="path270"><path d="M557.07,1051.65c-13.65,0-25.09-11.43-25.09-27.14,0-15.87,11.44-27.48,25.09-27.48,13.48,0,24.07,11.61,24.07,27.48,0,15.7-10.58,27.14-24.07,27.14M579.77,982v7.34h-.68c-4.44-5.29-13-10.07-23.72-10.07-22.53,0-43.18,19.8-43.18,45.23,0,25.26,20.65,44.89,43.18,44.89,10.75,0,19.29-4.78,23.72-10.24h.68v6.49c0,17.24-9.22,26.45-24.06,26.45-12.12,0-19.63-8.7-22.7-16l-17.24,7.17c4.95,11.95,18.09,26.63,39.94,26.63,23.21,0,42.84-13.65,42.84-46.94V982Z" transform="translate(0 0)" style="fill:#767576"/></g></g><g id="2239dab6-2629-4af9-a8cd-27d907478f92" data-name="path272"><path d="M632,1066.67H612.2V934.22H632Z" transform="translate(0 0)" style="fill:#767576"/></g><g id="211c7a9b-b4c4-4e55-82bf-e56dc193fe5c" data-name="g274"><g id="666f0e9c-1d29-41ae-b5ac-95d240835264" data-name="path276"><path d="M684.74,996.69c7.85,0,14.51,3.93,16.73,9.56L661.19,1023c-.51-17.41,13.48-26.28,23.55-26.28m1.54,55c-10.07,0-17.24-4.61-21.85-13.65l60.25-24.92-2-5.12c-3.75-10.07-15.19-28.67-38.57-28.67-23.21,0-42.5,18.26-42.5,45.06,0,25.26,19.11,45.06,44.72,45.06a44.82,44.82,0,0,0,37.55-20l-15.36-10.24c-5.12,7.51-12.12,12.46-22.19,12.46" transform="translate(0 0)" style="fill:#767576"/></g></g></g></g></g></g></g></svg>