<svg width="340px" height="90px" viewBox="0 0 340 90" version="1.1" xmlns="http://www.w3.org/2000/svg" xmlns:xlink="http://www.w3.org/1999/xlink">
  <!-- Generator: Sketch 42 (36781) - http://www.bohemiancoding.com/sketch -->
  <title>contentful_logo_340x90</title>
  <desc>Created with Sketch.</desc>
  <g id="Page-1" stroke="none" stroke-width="1" fill="none" fill-rule="evenodd">
    <g id="contentful_logo_340x90">
      <g id="logo" transform="translate(26.000000, 16.000000)">
        <g id="Group-3">
          <path d="M17.7634582,41.2144085 L17.769683,41.2081761 C14.7900865,38.2207817 12.9434006,34.0990915 12.9434006,29.5577535 C12.9434006,25.0081056 14.7900865,20.8864155 17.7738329,17.9031761 L17.7655331,17.8948662 C20.2927954,15.3645141 20.2927954,11.2635986 17.7655331,8.73740141 C15.2382709,6.2070493 11.1423631,6.2070493 8.61510086,8.73740141 C3.29083573,14.0640211 0,21.4265563 0,29.5577535 C0,37.6889507 3.29083573,45.047331 8.61510086,50.3739507 C11.1423631,52.9043028 15.2382709,52.9043028 17.7655331,50.3739507 C20.2927954,47.8477535 20.2927954,43.746838 17.7655331,41.2164859 C17.7647032,41.2156549 17.7638732,41.2152394 17.7634582,41.2144085" id="Fill-1" fill="#F8E418"></path>
        </g>
        <path d="M17.7655331,17.8965282 L17.7717579,17.9027606 C20.7555043,14.9195211 24.8721614,13.0705775 29.4079539,13.0705775 C33.9520461,13.0705775 38.0687032,14.9195211 41.0482997,17.9069155 L41.0565994,17.8986056 C43.5838617,20.4289577 47.6797695,20.4289577 50.2028818,17.8986056 C52.7301441,15.3682535 52.7301441,11.267338 50.2028818,8.73698592 C44.8827666,3.40621127 37.5292219,0.111352113 29.4079539,0.111352113 C21.2866859,0.111352113 13.9372911,3.40621127 8.61717579,8.73698592 C6.08991354,11.267338 6.08991354,15.3682535 8.61717579,17.8986056 C11.1402882,20.4289577 15.236196,20.4289577 17.7634582,17.8986056 C17.7642882,17.8977746 17.7647032,17.8973592 17.7655331,17.8965282" id="Fill-4" fill="#56AED2"></path>
        <path d="M41.0545245,41.2152394 L41.0482997,41.2085915 C38.0645533,44.191831 33.9478963,46.0407746 29.4121037,46.0407746 C24.8680115,46.0407746 20.7513545,44.191831 17.7717579,41.2044366 L17.7634582,41.2127465 C15.236196,38.6823944 11.1402882,38.6823944 8.61717579,41.2127465 C6.08991354,43.7430986 6.08991354,47.8440141 8.61717579,50.3743662 C13.9372911,55.7051408 21.2908357,59 29.4121037,59 C37.5333718,59 44.8827666,55.7051408 50.2028818,50.3743662 C52.7301441,47.8440141 52.7301441,43.7430986 50.2028818,41.2127465 C47.6797695,38.6823944 43.5838617,38.6823944 41.0565994,41.2127465 C41.0557695,41.2135775 41.0553545,41.2144085 41.0545245,41.2152394" id="Fill-5" fill="#E0534E"></path>
        <path d="M17.7655331,17.8948662 C15.2382709,20.4252183 11.1423631,20.4252183 8.61510086,17.8948662 C6.08783862,15.3645141 6.08783862,11.2635986 8.61510086,8.73740141 C11.1423631,6.2070493 15.2382709,6.2070493 17.7655331,8.73740141 C20.2927954,11.2635986 20.2927954,15.3645141 17.7655331,17.8948662" id="Fill-6" fill="#1D78A4"></path>
        <path d="M17.7655331,50.3739507 C15.2382709,52.9043028 11.1423631,52.9043028 8.61510086,50.3739507 C6.08783862,47.8477535 6.08783862,43.746838 8.61510086,41.2164859 C11.1423631,38.6861338 15.2382709,38.6861338 17.7655331,41.2164859 C20.2927954,43.746838 20.2927954,47.8477535 17.7655331,50.3739507" id="Fill-7" fill="#BE433B"></path>
        <path d="M166.286386,26.2712042 L180.070133,26.2712042 C179.545591,22.8379859 176.70211,21.4789085 173.427873,21.4789085 C170.104669,21.4789085 167.297291,23.0270352 166.286386,26.2712042 L166.286386,26.2712042 Z M98.9400346,21.9047887 C103.117695,21.9047887 105.927977,25.5548944 105.927977,29.5432113 C105.927977,33.7500775 103.349671,37.1251268 98.9400346,37.1251268 C94.5299827,37.1251268 91.9537522,33.7484155 91.9537522,29.5432113 C91.9537522,25.3945141 94.5764611,21.9047887 98.9400346,21.9047887 L98.9400346,21.9047887 Z M166.148196,32.0129014 C166.74951,35.7465211 170.300957,37.2846761 173.80136,37.2846761 C175.448438,37.2846761 177.351147,36.8633662 178.84468,36.1578592 C179.100726,36.0369507 179.342248,35.929338 179.587089,35.7876549 C180.414986,35.309007 181.174409,35.0248099 181.916403,35.7839155 C182.31645,36.1931761 182.716911,36.6007746 183.124427,37.0033873 C183.509948,37.3860563 183.857706,37.7687254 184.195089,38.1937746 C185.31721,39.6106056 184.529983,39.945493 183.260542,40.8047324 C180.535746,42.6482746 176.96272,43.5623592 173.693879,43.5623592 C164.900749,43.5623592 159.050697,38.2374014 159.050697,29.3288169 C159.050697,20.9283803 164.864646,15.3620211 173.214571,15.3620211 C181.762444,15.3620211 186.645579,20.386993 186.800369,28.9291127 C186.842282,31.2662606 186.946444,32.0129014 184.510893,32.0129014 L166.148196,32.0129014 L166.148196,32.0129014 Z M98.8865014,15.6287676 C90.7913775,15.6287676 85.0981902,21.5113169 85.0981902,29.5432113 C85.0981902,37.6852113 90.7444841,43.4555775 98.9400346,43.4555775 C107.12438,43.4555775 112.837902,37.6935211 112.837902,29.5432113 C112.837902,21.4909577 106.954236,15.6287676 98.8865014,15.6287676 L98.8865014,15.6287676 Z M195.40385,19.4932676 C197.837326,17.1798028 200.472899,15.7363803 203.91645,15.7363803 C211.368346,15.7363803 215.250121,21.8507746 215.250121,28.8468451 L215.250121,40.6318873 C215.250121,41.8609155 214.244611,42.8668239 213.016669,42.8668239 L210.625937,42.8668239 C209.398409,42.8668239 208.392899,41.8609155 208.392899,40.6318873 L208.392899,28.8996127 C208.392899,25.0226479 206.308012,22.0132324 202.207954,22.0132324 C198.204173,22.0132324 195.648277,25.4115493 195.648277,29.2203732 L195.648277,40.6489225 C195.648277,41.8671479 194.652311,42.8668239 193.435573,42.8668239 L191.061856,42.8668239 C189.844288,42.8668239 188.846248,41.8679789 188.846248,40.6489225 L188.846248,18.3278099 C188.846248,17.1095845 189.845118,16.1111549 191.061856,16.1111549 L193.084911,16.1111549 C194.320323,16.1111549 195.193452,17.1278662 195.298859,18.3120211 L195.40385,19.4932676 L195.40385,19.4932676 Z M121.502386,19.4916056 C123.935862,17.1789718 126.57268,15.7363803 130.016231,15.7363803 C137.466882,15.7363803 141.349072,21.8511901 141.349072,28.8468451 L141.349072,40.6323028 C141.349072,41.8617465 140.342732,42.8668239 139.116035,42.8668239 L136.724058,42.8668239 C135.496945,42.8668239 134.49268,41.8609155 134.49268,40.6323028 L134.49268,28.8996127 C134.49268,25.0218169 132.406548,22.0132324 128.306075,22.0132324 C124.302709,22.0132324 121.748473,25.4132113 121.748473,29.2212042 L121.748473,40.6489225 C121.748473,41.8688099 120.750432,42.8668239 119.532035,42.8668239 L117.159977,42.8668239 C115.939919,42.8668239 114.944369,41.8692254 114.944369,40.6489225 L114.944369,19.295493 L114.944369,18.3278099 C114.944369,17.1079225 115.941579,16.1111549 117.159977,16.1111549 L119.182617,16.1111549 C120.416369,16.1111549 121.292818,17.1295282 121.398225,18.3128521 L121.502386,19.4916056 L121.502386,19.4916056 Z M151.441937,16.2166901 L156.544599,16.2166901 C157.762997,16.2166901 158.758548,17.2163662 158.758548,18.4362535 L158.758548,19.9544648 C158.758548,21.1743521 157.762997,22.1719507 156.544599,22.1719507 L151.441937,22.1719507 L151.441937,33.392338 C151.441937,35.5504085 152.476081,36.7973028 154.66264,36.7973028 L155.698444,36.7973028 C156.918086,36.7973028 157.916957,37.791162 157.916957,39.0147887 L157.916957,40.5334155 C157.916957,41.7549648 156.916841,42.7513169 155.698444,42.7513169 L154.163827,42.7513169 C148.150686,42.7513169 144.639493,40.1740141 144.639493,33.392338 L144.639493,11.6408662 C144.639493,10.4205634 145.638363,9.42088732 146.857176,9.42088732 L149.227159,9.42088732 C150.446386,9.42088732 151.441937,10.4205634 151.441937,11.6408662 L151.441937,16.2166901 L151.441937,16.2166901 Z M225.231354,16.2166901 L230.333187,16.2166901 C231.551585,16.2166901 232.547965,17.2163662 232.547965,18.4362535 L232.547965,19.9544648 C232.547965,21.1743521 231.551585,22.1719507 230.333187,22.1719507 L225.231354,22.1719507 L225.231354,33.392338 C225.231354,35.5504085 226.264669,36.7952254 228.451643,36.7952254 L229.487032,36.7952254 C230.707504,36.7952254 231.703885,37.7928239 231.703885,39.0147887 L231.703885,40.5334155 C231.703885,41.7541338 230.705429,42.7513169 229.487032,42.7513169 L227.51668,42.7513169 C227.141948,42.7600423 226.794605,42.7450845 226.423193,42.7280493 C220.899735,42.3881761 218.428081,38.8024718 218.428081,33.392338 L218.428081,11.6408662 C218.428081,10.4205634 219.425291,9.4221338 220.643689,9.4221338 L223.015331,9.4221338 C224.235804,9.4221338 225.231354,10.4205634 225.231354,11.6408662 L225.231354,16.2166901 L225.231354,16.2166901 Z M241.892611,16.2324789 L246.556634,16.2324789 C247.789141,16.2324789 248.772657,17.2649789 248.772657,18.4902676 L248.772657,20.0383944 C248.772657,21.2636831 247.789971,22.2961831 246.556634,22.2961831 L241.892611,22.2961831 L241.892611,40.6323028 C241.892611,41.8634085 240.888761,42.8668239 239.659573,42.8668239 L237.269256,42.8668239 C236.041729,42.8668239 235.035389,41.8617465 235.035389,40.6323028 L235.035389,15.3001127 C235.035389,9.76076056 238.139481,5.40722535 243.787435,4.87705634 C243.942225,4.86292958 244.094524,4.85295775 244.245579,4.84589437 C244.577153,4.81514789 244.919101,4.82428873 245.246524,4.83426056 L247.423954,4.83426056 C248.656876,4.83426056 249.639147,5.86800704 249.639147,7.09329577 L249.639147,8.49973944 C249.639147,9.72502817 248.657706,10.7571127 247.423954,10.7571127 L245.828334,10.7554507 C245.774801,10.7637606 245.726248,10.765007 245.672715,10.765007 C243.003527,10.765007 241.892611,12.8312535 241.892611,15.3001127 L241.892611,16.2324789 L241.892611,16.2324789 Z M270.637418,39.5329085 C268.046248,42.008 265.543885,43.2960282 261.853003,43.2960282 C254.370813,43.2960282 250.787827,37.1064296 250.787827,30.1830704 L250.787827,18.4001056 C250.787827,17.171493 251.792092,16.1630915 253.01962,16.1630915 L255.412012,16.1630915 C256.639539,16.1630915 257.645049,17.171493 257.645049,18.4001056 L257.645049,30.1315493 C257.645049,34.0080986 259.726617,37.0183451 263.826674,37.0183451 C267.83917,37.0183451 270.388012,33.6075634 270.388012,29.7833662 L270.390916,25.5702676 C270.352323,25.4053169 270.334478,25.2457676 270.334478,25.0762465 L270.334478,18.4001056 C270.334478,17.170662 271.339159,16.1630915 272.567516,16.1630915 L274.956173,16.1630915 C276.184945,16.1630915 277.19087,17.169831 277.19087,18.4001056 L277.19087,40.6489225 C277.19087,41.8688099 276.192415,42.8668239 274.974432,42.8668239 L272.952622,42.8668239 C271.716795,42.8668239 270.841176,41.8492817 270.736599,40.6634648 L270.637418,39.5329085 L270.637418,39.5329085 Z M283.23804,42.8668239 C282.011343,42.8668239 281.005003,41.8617465 281.005003,40.6323028 L281.005003,11.623 C281.005003,10.3948028 282.011343,9.38723239 283.23804,9.38723239 L285.629187,9.38723239 C286.8563,9.38723239 287.862225,10.3939718 287.862225,11.623 L287.862225,40.6323028 C287.862225,41.8617465 286.85547,42.8668239 285.629187,42.8668239 L283.23804,42.8668239 L283.23804,42.8668239 Z M79.0987435,35.6530352 C80.9483343,34.2162606 81.21517,35.0401831 82.8029049,36.6107465 C83.6083919,37.406 85.7584323,38.763 84.3354467,39.9417535 C81.4023285,42.3698944 78.7638501,43.4726127 74.9613372,43.4726127 C66.4441729,43.4726127 60.4156772,37.1164014 60.8680115,28.7035 C61.0713545,24.9150352 62.5366686,21.3455352 65.4747666,18.8675352 C68.1721729,16.5918803 71.5198617,15.5830634 75.0269049,15.6487113 C76.8121729,15.6836127 78.4011527,15.9462042 80.0577752,16.610162 C81.128438,17.0389507 82.1742017,17.5338028 83.0938098,18.2384789 C84.961245,19.6665282 84.1034697,20.5137183 82.6427205,21.9770845 C82.3152968,22.304493 82.0003228,22.6435352 81.677049,22.9750986 C80.9495793,23.7192465 80.4308473,24.2568944 79.4236772,23.5667606 C77.5184784,22.2616972 75.1028473,21.5595141 72.8208415,22.1507606 C65.4826513,24.0524718 65.8739827,37.139669 74.8542709,37.139669 C76.347389,37.139669 77.9214294,36.5683662 79.0987435,35.6530352 L79.0987435,35.6530352 Z" id="Fill-8" fill="#272B2F"></path>
      </g>
    </g>
  </g>
</svg>
