<svg id="be03eb4a-2de4-4906-aa54-bac9562a7eda" data-name="Слой 1" xmlns="http://www.w3.org/2000/svg" viewBox="0 0 427.2 221.6"><title>logo-alle</title><path d="M131.9,108.8H109.6c0-17.9,4-29.9,12.1-36.1s23.9-9.2,47.5-9.2q38.4,0,51.9,11.3c9,7.5,13.5,21.9,13.5,43.1V219.3H212.1l1.8-16.5-.5-.2c-8.6,12.6-26,19-52.2,19q-58.2-.15-58.2-46.8c0-18.5,4.3-31.3,13-38.4s24.4-10.6,47.1-10.6q40.5,0,48.5,15.9l.5-.2V122.9c0-17.6-2.4-28.9-7.2-34.1S189.5,81,173.2,81q-41.4,0-41.4,23.3C131.8,105,131.8,106.5,131.9,108.8Zm36.2,34.5c-17.2,0-28.5,1.8-33.7,5.5s-7.8,11.5-7.8,23.5c0,12.4,2.6,20.6,7.7,24.7s15.6,6,31.3,6q47.55,0,47.6-28.9c0-12.1-3.1-20.2-9.2-24.4S185.8,143.3,168.1,143.3Z" transform="translate(-103)" style="fill:#555052"/><path d="M298.7,0V219.3H276.2V0Z" transform="translate(-103)" style="fill:#555052"/><path d="M360.7,0V219.3H338.2V0Z" transform="translate(-103)" style="fill:#555052"/><path d="M507,172.9h23l.2,5.6c0,16-4.8,27.1-14.5,33.5s-26.7,9.6-51,9.6c-28.3,0-46.8-5.2-55.7-15.5s-13.3-32-13.3-65.1q0-45.9,13.3-61.7t52.2-15.7q42.45,0,55.6,13.7T530,134.8v12H419.5c0,24.2,2.6,39.6,7.8,46.3s17.3,10,36.4,10c18.1,0,29.9-1.6,35.3-4.7s8.1-10,8.1-20.5v-5Zm0-43.7-.2-7.2c0-16.6-2.7-27.4-8.2-32.4s-17.2-7.5-35.3-7.5-30,2.9-35.4,8.8-8.1,18.6-8.1,38.3ZM490,2.2,501.6,18,454.2,47.1l-7.7-11.9Z" transform="translate(-103)" style="fill:#8cc070"/></svg>