<svg id="Layer_1" data-name="Layer 1" xmlns="http://www.w3.org/2000/svg" viewBox="0 0 174.53 60"><title>logo-amp</title><path d="M92.94,34.26H100l-2.38-7-.54-1.57q-.31-.9-.61-2-.28,1.07-.58,2t-.57,1.58l-2.38,7Zm16.63,9.79h-4.66a2.18,2.18,0,0,1-1.29-.36,1.87,1.87,0,0,1-.7-.92l-1.53-4.47H91.55L90,42.77a2,2,0,0,1-.69.89,2,2,0,0,1-1.26.4H83.38l10-25.62h6.15l10,25.62Zm21-10.32c.22.48.43,1,.63,1.48q.3-.78.64-1.51t.69-1.42l6.65-13a2.16,2.16,0,0,1,.37-.52,1.21,1.21,0,0,1,.42-.27,1.44,1.44,0,0,1,.52-.09h5.27v25.6h-5.29V29.32c0-.71,0-1.49.11-2.32L133.7,40.17a2.25,2.25,0,0,1-.86.93,2.41,2.41,0,0,1-1.24.32h-.82a2.4,2.4,0,0,1-1.24-.31,2.23,2.23,0,0,1-.86-.93L121.79,27q.07.61.11,1.22c0,.41,0,.78,0,1.12V44.06h-5.29V18.46h5.27a1.45,1.45,0,0,1,.52.09,1.2,1.2,0,0,1,.42.27,2.13,2.13,0,0,1,.36.52l6.66,13q.36.67.68,1.39M161,31h3.13a4.44,4.44,0,0,0,3.38-1.11,4.37,4.37,0,0,0,1-3.09,4.58,4.58,0,0,0-.27-1.6,3.29,3.29,0,0,0-.81-1.24,3.7,3.7,0,0,0-1.37-.8,6.13,6.13,0,0,0-2-.28H161V31Zm0,4.48v8.56h-6V18.44h9.13a15.28,15.28,0,0,1,4.7.64,9.05,9.05,0,0,1,3.23,1.77,6.88,6.88,0,0,1,1.88,2.65,8.92,8.92,0,0,1,.6,3.31,9.65,9.65,0,0,1-.62,3.52,7.09,7.09,0,0,1-1.9,2.74,9,9,0,0,1-3.24,1.78,14.94,14.94,0,0,1-4.65.64H161ZM40.67,27.25,28,48.2h-2.3l2.28-13.65H20.79a1.14,1.14,0,0,1-1.15-1.14,2.1,2.1,0,0,1,.25-.73L32.56,11.77H34.9L32.57,25.45h7.2a1.14,1.14,0,0,1,1.15,1.14,1.1,1.1,0,0,1-.24.67ZM30.29,0A30,30,0,1,0,60.58,30,30.15,30.15,0,0,0,30.29,0Z" style="fill:#0379c4"/></svg>