<svg id="Layer_1" data-name="Layer 1" xmlns="http://www.w3.org/2000/svg" viewBox="0 0 640 480"><defs><style>.cls-1{fill:#bb1919;}.cls-2,.cls-3{fill:#fff;}.cls-2{fill-rule:evenodd;}</style></defs><title>bbc-news-logo</title><rect class="cls-1" y="-2" width="640" height="482"/><path class="cls-2" d="M241.64,175.65a23.28,23.28,0,0,0-7.71-.93H227.3v16h7c3.88,0,6.5-.3,7.88-.92a7.8,7.8,0,0,0,4.59-7,7.26,7.26,0,0,0-1.33-4.21A8.08,8.08,0,0,0,241.64,175.65Z"/><path class="cls-2" d="M240.05,166.1a7.33,7.33,0,0,0,2.39-5.67q0-7.25-9.05-7.24H227.3v15.12H232C235.78,168.31,238.46,167.58,240.05,166.1Z"/><path class="cls-2" d="M201.69,136.86v70.4h69.23v-70.4Zm50.41,53.37a14.3,14.3,0,0,1-5.71,4.94,20.86,20.86,0,0,1-9.43,1.9H220.23v-50.3h12.94c4.08,0,7.27.57,9.55,1.67a12.31,12.31,0,0,1,5.24,4.61,12.65,12.65,0,0,1,1.8,6.8q0,7.41-7.53,10.62a15.25,15.25,0,0,1,8.62,4.53,11.94,11.94,0,0,1,3.2,8.36A12.44,12.44,0,0,1,252.11,190.23Z"/><path class="cls-2" d="M320.34,166.1a7.34,7.34,0,0,0,2.38-5.67q0-7.25-9.05-7.24h-6.08v15.12h4.71C316.07,168.31,318.75,167.58,320.34,166.1Z"/><path class="cls-2" d="M321.92,175.65a23.26,23.26,0,0,0-7.71-.93h-6.62v16h7c3.88,0,6.49-.3,7.87-.92a7.78,7.78,0,0,0,4.59-7,7.25,7.25,0,0,0-1.33-4.21A8,8,0,0,0,321.92,175.65Z"/><path class="cls-2" d="M281.68,136.86v70.4h69.23v-70.4Zm50.71,53.37a14.36,14.36,0,0,1-5.71,4.94,20.92,20.92,0,0,1-9.43,1.9H300.51v-50.3h12.95c4.08,0,7.27.57,9.55,1.67a12.31,12.31,0,0,1,5.24,4.61,12.7,12.7,0,0,1,1.8,6.8q0,7.41-7.54,10.62a15.28,15.28,0,0,1,8.62,4.53,11.93,11.93,0,0,1,3.2,8.36A12.47,12.47,0,0,1,332.39,190.23Z"/><path class="cls-2" d="M361.68,136.86v70.4h69.23v-70.4ZM417,193.33a36.35,36.35,0,0,1-18,4.33,27.28,27.28,0,0,1-14-3.39,24.73,24.73,0,0,1-9.13-9.31,25.77,25.77,0,0,1-3.36-12.86,24.77,24.77,0,0,1,7.7-18.47,26.2,26.2,0,0,1,19-7.49q7.8,0,17.31,4.14V158q-8.68-5-17-5a19.38,19.38,0,0,0-14.09,5.46,19.48,19.48,0,0,0-.1,27.27q5.53,5.33,14.12,5.33A31.73,31.73,0,0,0,417,185.41Z"/><path class="cls-3" d="M212,241.43h12.52v92.05H213.14l-61.55-70.9v70.9H139.21V241.43h10.68L212,312.93Z"/><path class="cls-3" d="M244.18,241.43h52.19v11.73h-39v28.07H295V293H257.36v28.6h40.26v11.73H244.18Z"/><path class="cls-3" d="M428.92,241.43h13.14l-37.22,92.45h-2.89L371.85,259l-30.41,74.86h-2.83l-37.1-92.45h13.28l25.37,63.46,25.54-63.46h12.46l25.66,63.46Z"/><path class="cls-3" d="M475.07,294.92l-10-6.08q-9.42-5.75-13.41-11.32a21.45,21.45,0,0,1-4-12.82q0-10.87,7.54-17.66t19.6-6.79A37.09,37.09,0,0,1,496,246.72v15q-9.95-9.57-21.42-9.57a17.72,17.72,0,0,0-10.61,3,9.06,9.06,0,0,0-4.15,7.65,11.78,11.78,0,0,0,3.06,7.75q3.06,3.61,9.83,7.58l10.07,6q16.84,10.06,16.84,25.61,0,11.07-7.41,18t-19.27,6.92a40.48,40.48,0,0,1-24.84-8.39V309.42q10.67,13.53,24.71,13.52a15.52,15.52,0,0,0,10.31-3.45,10.8,10.8,0,0,0,4.12-8.63Q487.2,302.46,475.07,294.92Z"/></svg>