<?xml version="1.0" encoding="utf-8"?>
<!-- Generator: Adobe Illustrator 21.0.2, SVG Export Plug-In . SVG Version: 6.00 Build 0)  -->
<svg version="1.1" id="Layer_1" xmlns="http://www.w3.org/2000/svg" xmlns:xlink="http://www.w3.org/1999/xlink" x="0px" y="0px"
	 viewBox="0 0 640 480" style="enable-background:new 0 0 640 480;" xml:space="preserve">
<title>bbc-news-logo</title>
<rect y="-2" style="fill:#BB1919;" width="640" height="482"/>
<path style="fill:#FFFFFF;" d="M241.6,175.6c-2.5-0.7-5.1-1.1-7.7-0.9h-6.6v16h7c3.9,0,6.5-0.3,7.9-0.9c2.8-1.2,4.5-4,4.6-7
	c0-1.5-0.5-3-1.3-4.2C244.5,177.2,243.2,176.2,241.6,175.6z"/>
<path style="fill:#FFFFFF;" d="M240.1,166.1c1.6-1.4,2.5-3.5,2.4-5.7c0-4.8-3-7.2-9.1-7.2h-6.1v15.1h4.7
	C235.8,168.3,238.5,167.6,240.1,166.1z"/>
<path style="fill:#FFFFFF;" d="M201.7,136.9v70.4h69.2v-70.4L201.7,136.9z M252.1,190.2c-1.4,2.1-3.4,3.8-5.7,4.9
	c-3,1.4-6.2,2-9.4,1.9h-16.7v-50.3h12.9c4.1,0,7.3,0.6,9.6,1.7c2.2,1,4,2.6,5.2,4.6c1.2,2.1,1.9,4.4,1.8,6.8c0,4.9-2.5,8.5-7.5,10.6
	c3.3,0.5,6.3,2.1,8.6,4.5c2.1,2.3,3.3,5.3,3.2,8.4C254.1,185.8,253.4,188.2,252.1,190.2L252.1,190.2z"/>
<path style="fill:#FFFFFF;" d="M320.3,166.1c1.6-1.5,2.5-3.5,2.4-5.7c0-4.8-3-7.2-9-7.2h-6.1v15.1h4.7
	C316.1,168.3,318.8,167.6,320.3,166.1z"/>
<path style="fill:#FFFFFF;" d="M321.9,175.6c-2.5-0.7-5.1-1.1-7.7-0.9h-6.6v16h7c3.9,0,6.5-0.3,7.9-0.9c2.8-1.2,4.6-4,4.6-7
	c0-1.5-0.5-3-1.3-4.2C324.8,177.2,323.5,176.2,321.9,175.6z"/>
<path style="fill:#FFFFFF;" d="M281.7,136.9v70.4h69.2v-70.4L281.7,136.9z M332.4,190.2c-1.4,2.1-3.4,3.8-5.7,4.9
	c-3,1.4-6.2,2-9.4,1.9h-16.7v-50.3h13c4.1,0,7.3,0.6,9.5,1.7c2.2,1,4,2.6,5.2,4.6c1.2,2.1,1.9,4.4,1.8,6.8c0,4.9-2.5,8.5-7.5,10.6
	c3.3,0.5,6.3,2.1,8.6,4.5c2.1,2.3,3.3,5.3,3.2,8.4C334.4,185.8,333.7,188.2,332.4,190.2L332.4,190.2z"/>
<path style="fill:#FFFFFF;" d="M361.7,136.9v70.4h69.2v-70.4L361.7,136.9z M417,193.3c-5.5,3-11.7,4.5-18,4.3c-4.9,0.1-9.7-1-14-3.4
	c-3.8-2.2-7-5.4-9.1-9.3c-2.2-3.9-3.4-8.4-3.4-12.9c-0.1-7,2.7-13.7,7.7-18.5c5.1-5,11.9-7.7,19-7.5c5.2,0,11,1.4,17.3,4.1v7.7
	c-5.8-3.3-11.5-5-17-5c-5.2-0.2-10.3,1.8-14.1,5.5c-7.5,7.5-7.5,19.7-0.1,27.3c3.7,3.6,8.4,5.3,14.1,5.3c6.3-0.1,12.4-2.1,17.5-5.7
	V193.3z"/>
<path style="fill:#FFFFFF;" d="M212,241.4h12.5v92h-11.4l-61.6-70.9v70.9h-12.4v-92h10.7l62.1,71.5V241.4z"/>
<path style="fill:#FFFFFF;" d="M244.2,241.4h52.2v11.7h-39v28.1H295V293h-37.6v28.6h40.3v11.7h-53.4V241.4z"/>
<path style="fill:#FFFFFF;" d="M428.9,241.4h13.1l-37.2,92.5H402L371.9,259l-30.4,74.9h-2.8l-37.1-92.4h13.3l25.4,63.5l25.5-63.5
	h12.5l25.7,63.5L428.9,241.4z"/>
<path style="fill:#FFFFFF;" d="M475.1,294.9l-10-6.1c-6.3-3.8-10.8-7.6-13.4-11.3c-2.7-3.7-4.1-8.2-4-12.8c0-7.2,2.5-13.1,7.5-17.7
	c5-4.5,11.6-6.8,19.6-6.8c7.6-0.1,15,2.2,21.2,6.5v15c-6.6-6.4-13.8-9.6-21.4-9.6c-3.8-0.2-7.5,0.9-10.6,3c-2.6,1.7-4.2,4.6-4.1,7.6
	c0,2.9,1.1,5.6,3.1,7.8c2,2.4,5.3,4.9,9.8,7.6l10.1,6c11.2,6.7,16.8,15.2,16.8,25.6c0,7.4-2.5,13.4-7.4,18s-11.4,6.9-19.3,6.9
	c-9,0-17.7-2.9-24.8-8.4v-16.8c7.1,9,15.4,13.5,24.7,13.5c3.7,0.1,7.4-1.1,10.3-3.5c2.6-2.1,4.2-5.3,4.1-8.6
	C487.2,305.3,483.2,299.9,475.1,294.9z"/>
</svg>
