<?xml version="1.0" encoding="utf-8"?>
<!-- Generator: Adobe Illustrator 17.1.0, SVG Export Plug-In . SVG Version: 6.00 Build 0)  -->
<!DOCTYPE svg PUBLIC "-//W3C//DTD SVG 1.1//EN" "http://www.w3.org/Graphics/SVG/1.1/DTD/svg11.dtd">
<svg version="1.1" id="Layer_1" xmlns="http://www.w3.org/2000/svg" xmlns:xlink="http://www.w3.org/1999/xlink" x="0px" y="0px"
	 viewBox="-50 -50 400 400" enable-background="new 0 0 310.7 310.7" xml:space="preserve">
<circle fill="#404040" cx="155.3" cy="155.3" r="155.3"/>
<g>
	<g>
		<path fill="#FFFFFF" d="M111.8,183.4h-11.5l-12.9-44.5l-12.9,44.5H63L44.3,110h14.3l10.9,46.3L82.3,110h10.3l12.8,46.3l11-46.3
			h14.3L111.8,183.4z"/>
		<path fill="#FFFFFF" d="M178.5,176.4c-4.6,4.8-11.3,7-18.6,7h-25.4V110h25.4c7.3,0,13.9,2.2,18.6,7c7.9,8.2,7.1,18.4,7.1,29.4
			C185.6,157.4,186.4,168.1,178.5,176.4z M168.9,127.3c-2.4-3-5.5-4.5-10.3-4.5h-10.4v47.8h10.4c4.7,0,7.9-1.5,10.3-4.5
			c2.6-3.3,3-8.6,3-19.7C171.9,135.2,171.5,130.6,168.9,127.3z"/>
		<path fill="#FFFFFF" d="M251.6,183.4h-11.5l-12.9-44.5l-12.9,44.5h-11.5L184.1,110h14.3l10.9,46.3l12.8-46.3h10.3l12.8,46.3
			l11-46.3h14.3L251.6,183.4z"/>
	</g>
	<g>
		<path fill="#808080" d="M62.1,207.9l6.9,3.2c0.3,0.1,0.5,0.3,0.6,0.4c0.1,0.1,0.2,0.3,0.2,0.4c0,0.2-0.1,0.3-0.2,0.5
			c-0.1,0.1-0.3,0.2-0.5,0.2c-0.1,0-0.2,0-0.3,0c-0.1,0-0.3-0.1-0.5-0.2l-7.5-3.5c0,0-0.1,0-0.1,0c-0.6-0.3-0.9-0.5-0.9-0.9
			s0.3-0.6,0.8-0.8c0.1,0,0.1,0,0.1-0.1l7.5-3.4c0.2-0.1,0.3-0.1,0.4-0.2c0.1,0,0.2-0.1,0.3-0.1c0.2,0,0.3,0.1,0.5,0.2
			c0.1,0.1,0.2,0.2,0.2,0.4c0,0.2-0.1,0.3-0.2,0.4c-0.1,0.1-0.3,0.3-0.6,0.4L62.1,207.9z"/>
		<path fill="#808080" d="M76.2,207.3l-1.2,4.5c-0.1,0.2-0.2,0.4-0.3,0.5c-0.1,0.1-0.3,0.1-0.6,0.1c-0.2,0-0.4-0.1-0.5-0.2
			c-0.1-0.1-0.2-0.3-0.3-0.6l-2.1-6.8H71c-0.3,0-0.5-0.1-0.6-0.2c-0.1-0.1-0.2-0.3-0.2-0.5c0-0.2,0.1-0.4,0.2-0.5
			c0.1-0.1,0.3-0.2,0.5-0.2h2.5c0.3,0,0.6,0,0.7,0.1c0.1,0.1,0.2,0.3,0.2,0.5c0,0.2,0,0.3-0.1,0.4c-0.1,0.1-0.2,0.2-0.3,0.2
			c-0.1,0-0.2,0.1-0.4,0.1c-0.1,0-0.3,0-0.5,0h-0.5l1.6,5.6l1.2-4.1c0.1-0.2,0.2-0.4,0.3-0.5c0.1-0.1,0.3-0.1,0.6-0.1
			c0.2,0,0.4,0.1,0.5,0.2c0.1,0.1,0.2,0.3,0.3,0.6l1.2,3.9l1.5-5.6h-0.2h-0.4c-0.4,0-0.7,0-0.9-0.1c-0.2-0.1-0.2-0.3-0.2-0.5
			c0-0.2,0.1-0.4,0.2-0.5c0.1-0.1,0.3-0.1,0.7-0.1h2.5c0.2,0,0.3,0.1,0.4,0.2c0.1,0.1,0.1,0.3,0.1,0.5c0,0.2-0.1,0.4-0.2,0.5
			c-0.1,0.1-0.3,0.2-0.6,0.2l-2.1,7c-0.1,0.2-0.2,0.4-0.3,0.5c-0.1,0.1-0.3,0.1-0.5,0.1c-0.2,0-0.4-0.1-0.5-0.2
			c-0.1-0.1-0.2-0.3-0.3-0.6L76.2,207.3z"/>
		<path fill="#808080" d="M84.2,208.2c0,0.9,0.4,1.6,0.9,2.1c0.6,0.5,1.3,0.7,2.3,0.7c0.7,0,1.5-0.2,2.4-0.6
			c0.9-0.4,1.4-0.6,1.6-0.6c0.2,0,0.3,0.1,0.5,0.2c0.1,0.1,0.2,0.3,0.2,0.4c0,0.2-0.1,0.3-0.2,0.5c-0.1,0.1-0.3,0.3-0.6,0.4
			c-0.6,0.3-1.3,0.5-1.9,0.7c-0.7,0.2-1.3,0.2-2,0.2c-1.4,0-2.6-0.4-3.4-1.2c-0.9-0.8-1.3-1.9-1.3-3.3c0-1.4,0.5-2.5,1.4-3.4
			c0.9-0.9,2.1-1.3,3.5-1.3c1.3,0,2.4,0.4,3.3,1.2c0.9,0.8,1.3,1.8,1.3,2.9c0,0.3-0.1,0.6-0.2,0.7c-0.1,0.1-0.5,0.2-1.2,0.2h-0.1
			H84.2z M84.2,206.9h6.1c-0.1-0.7-0.4-1.3-0.9-1.8c-0.5-0.5-1.2-0.7-1.9-0.7c-0.8,0-1.5,0.2-2.1,0.7
			C84.8,205.6,84.4,206.2,84.2,206.9z"/>
		<path fill="#808080" d="M96.1,204.8c0.3-0.4,0.8-0.8,1.3-1c0.5-0.2,1.1-0.3,1.8-0.3c1.3,0,2.3,0.4,3.1,1.3
			c0.8,0.8,1.3,1.9,1.3,3.1c0,1.2-0.4,2.3-1.3,3.1c-0.9,0.9-1.9,1.3-3.1,1.3c-0.7,0-1.2-0.1-1.7-0.3c-0.5-0.2-0.9-0.6-1.2-1.1v0.8
			c0,0.2,0,0.3-0.1,0.4c-0.1,0.1-0.2,0.1-0.3,0.1h-1.7c-0.2,0-0.4-0.1-0.5-0.2c-0.1-0.1-0.2-0.3-0.2-0.5c0-0.2,0.1-0.4,0.2-0.5
			c0.1-0.1,0.4-0.1,0.9-0.1h0.2v-9.6h-0.2c-0.4,0-0.7,0-0.9-0.1c-0.2-0.1-0.2-0.3-0.2-0.5c0-0.2,0.1-0.4,0.2-0.5
			c0.1-0.1,0.3-0.2,0.6-0.2h1.4c0.2,0,0.3,0,0.4,0.1c0.1,0.1,0.1,0.2,0.1,0.3V204.8z M99,210.8c0.9,0,1.6-0.3,2.1-0.8
			c0.5-0.6,0.8-1.3,0.8-2.2c0-0.9-0.3-1.6-0.8-2.1c-0.6-0.6-1.3-0.8-2.1-0.8c-0.9,0-1.6,0.3-2.1,0.8c-0.6,0.6-0.8,1.3-0.8,2.2
			c0,0.9,0.3,1.6,0.8,2.2C97.4,210.5,98.2,210.8,99,210.8z"/>
		<path fill="#808080" d="M112.5,212.1c-0.1,0-0.2,0-0.3-0.1c-0.1-0.1-0.1-0.2-0.1-0.4v-0.8c-0.4,0.5-0.8,0.8-1.4,1.1
			c-0.6,0.3-1.2,0.4-1.8,0.4c-1.2,0-2.2-0.4-3-1.3c-0.8-0.8-1.2-1.9-1.2-3.1c0-1.3,0.4-2.4,1.3-3.2c0.8-0.9,1.9-1.3,3.2-1.3
			c0.6,0,1.2,0.1,1.7,0.3c0.5,0.2,1,0.6,1.3,1v-3.6h-0.5c-0.5,0-0.9,0-1.1-0.1c-0.2-0.1-0.2-0.3-0.2-0.5c0-0.2,0.1-0.4,0.2-0.5
			c0.1-0.1,0.3-0.2,0.6-0.2h1.9c0.2,0,0.3,0,0.4,0.1c0.1,0.1,0.1,0.2,0.1,0.3v10.6h0.4c0.3,0,0.5,0.1,0.7,0.2
			c0.1,0.1,0.2,0.3,0.2,0.5c0,0.2-0.1,0.4-0.2,0.5c-0.1,0.1-0.3,0.2-0.5,0.2H112.5z M106.3,207.9c0,0.9,0.3,1.6,0.8,2.1
			c0.6,0.6,1.3,0.8,2.1,0.8c0.9,0,1.6-0.3,2.1-0.9c0.6-0.6,0.8-1.3,0.8-2.2c0-0.9-0.3-1.6-0.8-2.1c-0.6-0.6-1.3-0.8-2.1-0.8
			c-0.9,0-1.6,0.3-2.1,0.9C106.6,206.2,106.3,207,106.3,207.9z"/>
		<path fill="#808080" d="M117.6,208.2c0,0.9,0.4,1.6,0.9,2.1c0.6,0.5,1.3,0.7,2.3,0.7c0.7,0,1.5-0.2,2.4-0.6
			c0.9-0.4,1.4-0.6,1.6-0.6c0.2,0,0.3,0.1,0.5,0.2c0.1,0.1,0.2,0.3,0.2,0.4c0,0.2-0.1,0.3-0.2,0.5c-0.1,0.1-0.3,0.3-0.6,0.4
			c-0.6,0.3-1.3,0.5-1.9,0.7c-0.7,0.2-1.3,0.2-2,0.2c-1.4,0-2.6-0.4-3.4-1.2c-0.9-0.8-1.3-1.9-1.3-3.3c0-1.4,0.5-2.5,1.4-3.4
			c0.9-0.9,2.1-1.3,3.5-1.3c1.3,0,2.4,0.4,3.3,1.2c0.9,0.8,1.3,1.8,1.3,2.9c0,0.3-0.1,0.6-0.2,0.7c-0.1,0.1-0.5,0.2-1.2,0.2h-0.1
			H117.6z M117.7,206.9h6.1c-0.1-0.7-0.4-1.3-0.9-1.8c-0.5-0.5-1.2-0.7-1.9-0.7c-0.8,0-1.5,0.2-2.1,0.7S117.9,206.2,117.7,206.9z"/>
		<path fill="#808080" d="M127.9,211.4v-1.7c0-0.3,0.1-0.5,0.2-0.6c0.1-0.1,0.3-0.2,0.5-0.2c0.3,0,0.5,0.2,0.6,0.5
			c0.1,0.2,0.2,0.4,0.3,0.5c0.3,0.3,0.6,0.6,1.2,0.8c0.5,0.2,1.1,0.3,1.7,0.3c0.7,0,1.2-0.1,1.6-0.4c0.4-0.3,0.6-0.6,0.6-1.1
			c0-0.4-0.2-0.8-0.5-0.9c-0.3-0.2-0.9-0.3-1.7-0.3h-0.5c-1.3,0-2.2-0.2-2.9-0.7c-0.7-0.4-1-1.1-1-1.9c0-0.8,0.3-1.5,1-1.9
			c0.7-0.5,1.6-0.7,2.8-0.7c0.5,0,1,0.1,1.5,0.2c0.5,0.1,0.8,0.2,0.8,0.2c0.1,0,0.2-0.1,0.4-0.2c0.2-0.1,0.4-0.2,0.6-0.2
			c0.2,0,0.4,0.1,0.5,0.2c0.1,0.2,0.2,0.4,0.2,0.7v1.1c0,0.3,0,0.6-0.1,0.7c-0.1,0.1-0.3,0.2-0.5,0.2c-0.2,0-0.4-0.2-0.7-0.5
			c-0.2-0.2-0.4-0.4-0.5-0.5c-0.3-0.3-0.7-0.5-1.1-0.7c-0.4-0.1-0.8-0.2-1.3-0.2c-0.6,0-1.1,0.1-1.4,0.4c-0.4,0.3-0.5,0.6-0.5,1
			c0,0.4,0.2,0.7,0.6,0.8c0.4,0.2,1.2,0.3,2.4,0.3c1.3,0,2.3,0.3,2.9,0.7c0.6,0.4,0.9,1.1,0.9,2c0,0.8-0.3,1.5-1,2
			c-0.7,0.5-1.6,0.8-2.7,0.8c-0.4,0-0.8,0-1.2-0.1c-0.4-0.1-1-0.2-1.7-0.3c-0.2,0.1-0.4,0.3-0.6,0.3c-0.2,0.1-0.3,0.1-0.4,0.1
			c-0.2,0-0.4-0.1-0.5-0.2C127.9,211.9,127.9,211.7,127.9,211.4z"/>
		<path fill="#808080" d="M143,210.8h3c0.2,0,0.4,0.1,0.5,0.2c0.1,0.1,0.2,0.3,0.2,0.5c0,0.3-0.1,0.4-0.2,0.5
			c-0.1,0.1-0.3,0.1-0.6,0.1h-7.3c-0.3,0-0.4-0.1-0.6-0.2c-0.1-0.1-0.2-0.3-0.2-0.5c0-0.2,0.1-0.4,0.2-0.5c0.1-0.1,0.3-0.2,0.6-0.2
			h2.9v-6h-1.8c-0.3,0-0.5-0.1-0.6-0.2c-0.1-0.1-0.2-0.3-0.2-0.5c0-0.2,0.1-0.4,0.2-0.5c0.1-0.1,0.3-0.2,0.6-0.2h2.7
			c0.2,0,0.3,0,0.4,0.1c0.1,0.1,0.1,0.2,0.1,0.3V210.8z M141.3,200.7c0-0.7,0.1-1.1,0.2-1.3c0.1-0.2,0.4-0.3,0.8-0.3
			c0.4,0,0.6,0.1,0.8,0.2c0.1,0.1,0.2,0.5,0.2,1c0,0.5-0.1,0.9-0.2,1c-0.1,0.1-0.4,0.2-0.8,0.2c-0.4,0-0.7-0.1-0.8-0.2
			C141.3,201.3,141.3,201.1,141.3,200.7z"/>
		<path fill="#808080" d="M156.1,211.6c0,0.9,0,1.5-0.1,1.9c-0.1,0.4-0.2,0.7-0.5,1c-0.3,0.5-0.8,0.8-1.5,1.1
			c-0.6,0.2-1.4,0.4-2.2,0.4c-0.7,0-1.2-0.1-1.6-0.2c-0.3-0.1-0.5-0.4-0.5-0.7c0-0.2,0.1-0.4,0.2-0.5c0.2-0.1,0.3-0.2,0.6-0.2
			c0.2,0,0.4,0,0.8,0.1c0.3,0,0.6,0.1,0.8,0.1c0.9,0,1.6-0.2,2-0.6c0.4-0.4,0.6-1.2,0.6-2.2v-1.1c-0.4,0.4-0.8,0.8-1.3,1
			c-0.5,0.2-1,0.3-1.6,0.3c-1.2,0-2.1-0.4-2.9-1.2c-0.8-0.8-1.2-1.8-1.2-3c0-1.2,0.4-2.2,1.2-3c0.8-0.8,1.8-1.2,2.9-1.2
			c0.5,0,1,0.1,1.4,0.3c0.5,0.2,0.9,0.4,1.4,0.8v-0.7c0-0.1,0-0.2,0.1-0.3c0.1-0.1,0.2-0.1,0.4-0.1h1.4c0.2,0,0.4,0.1,0.6,0.2
			c0.1,0.1,0.2,0.3,0.2,0.5c0,0.2-0.1,0.4-0.2,0.5c-0.2,0.1-0.5,0.2-0.9,0.2h-0.2V211.6z M152,204.8c-0.8,0-1.5,0.3-2,0.8
			c-0.5,0.5-0.8,1.2-0.8,2c0,0.8,0.3,1.4,0.8,2c0.5,0.5,1.2,0.8,2,0.8c0.8,0,1.5-0.3,2-0.8c0.5-0.5,0.8-1.2,0.8-2
			c0-0.8-0.3-1.4-0.8-2C153.5,205.1,152.9,204.8,152,204.8z"/>
		<path fill="#808080" d="M160,210.8v-6h-0.2c-0.4,0-0.7-0.1-0.9-0.2c-0.2-0.1-0.2-0.3-0.2-0.5c0-0.2,0.1-0.4,0.2-0.5
			c0.1-0.1,0.3-0.2,0.6-0.2h0.4h0.9c0.2,0,0.3,0,0.4,0.1c0.1,0.1,0.1,0.2,0.1,0.3v0.6c0.5-0.4,0.9-0.7,1.4-0.9
			c0.4-0.2,0.9-0.3,1.4-0.3c0.9,0,1.7,0.3,2.2,0.9c0.5,0.6,0.8,1.4,0.8,2.4v4.2h0.4c0.3,0,0.5,0.1,0.7,0.2c0.1,0.1,0.2,0.3,0.2,0.5
			c0,0.2-0.1,0.4-0.2,0.5c-0.1,0.1-0.4,0.2-0.8,0.2h-2.1c-0.4,0-0.7,0-0.8-0.1c-0.1-0.1-0.2-0.3-0.2-0.5c0-0.2,0.1-0.4,0.2-0.5
			c0.1-0.1,0.4-0.1,0.7-0.1h0.3v-3.9c0-0.7-0.2-1.3-0.5-1.7c-0.3-0.4-0.8-0.6-1.4-0.6c-0.6,0-1.2,0.2-1.7,0.6
			c-0.5,0.4-0.7,1-0.7,1.6v3.9h0.3c0.4,0,0.6,0,0.8,0.1c0.1,0.1,0.2,0.3,0.2,0.5c0,0.3-0.1,0.4-0.2,0.5c-0.1,0.1-0.4,0.1-0.8,0.1
			H160h-0.5c-0.3,0-0.4-0.1-0.6-0.2c-0.1-0.1-0.2-0.3-0.2-0.5c0-0.2,0.1-0.4,0.2-0.5c0.1-0.1,0.4-0.1,0.9-0.1H160z"/>
		<path fill="#808080" d="M174.5,207.3l-1.2,4.5c-0.1,0.2-0.2,0.4-0.3,0.5c-0.1,0.1-0.3,0.1-0.6,0.1c-0.2,0-0.4-0.1-0.5-0.2
			c-0.1-0.1-0.2-0.3-0.3-0.6l-2.1-6.8h-0.1c-0.3,0-0.5-0.1-0.6-0.2c-0.1-0.1-0.2-0.3-0.2-0.5c0-0.2,0.1-0.4,0.2-0.5
			c0.1-0.1,0.3-0.2,0.5-0.2h2.5c0.3,0,0.6,0,0.7,0.1c0.1,0.1,0.2,0.3,0.2,0.5c0,0.2,0,0.3-0.1,0.4c-0.1,0.1-0.2,0.2-0.3,0.2
			c-0.1,0-0.2,0.1-0.4,0.1c-0.1,0-0.3,0-0.5,0h-0.5l1.6,5.6l1.2-4.1c0.1-0.2,0.2-0.4,0.3-0.5c0.1-0.1,0.3-0.1,0.6-0.1
			c0.2,0,0.4,0.1,0.5,0.2c0.1,0.1,0.2,0.3,0.3,0.6l1.2,3.9l1.5-5.6H178h-0.4c-0.4,0-0.7,0-0.9-0.1c-0.2-0.1-0.2-0.3-0.2-0.5
			c0-0.2,0.1-0.4,0.2-0.5c0.1-0.1,0.3-0.1,0.7-0.1h2.5c0.2,0,0.3,0.1,0.4,0.2c0.1,0.1,0.1,0.3,0.1,0.5c0,0.2-0.1,0.4-0.2,0.5
			c-0.1,0.1-0.3,0.2-0.6,0.2l-2.1,7c-0.1,0.2-0.2,0.4-0.3,0.5c-0.1,0.1-0.3,0.1-0.5,0.1c-0.2,0-0.4-0.1-0.5-0.2
			c-0.1-0.1-0.2-0.3-0.3-0.6L174.5,207.3z"/>
		<path fill="#808080" d="M182.6,208.2c0.1,0.9,0.4,1.6,0.9,2.1c0.6,0.5,1.3,0.7,2.3,0.7c0.7,0,1.5-0.2,2.4-0.6
			c0.9-0.4,1.4-0.6,1.6-0.6c0.2,0,0.3,0.1,0.5,0.2c0.1,0.1,0.2,0.3,0.2,0.4c0,0.2-0.1,0.3-0.2,0.5c-0.1,0.1-0.3,0.3-0.6,0.4
			c-0.6,0.3-1.3,0.5-1.9,0.7c-0.7,0.2-1.3,0.2-2,0.2c-1.4,0-2.6-0.4-3.4-1.2c-0.9-0.8-1.3-1.9-1.3-3.3c0-1.4,0.5-2.5,1.4-3.4
			c0.9-0.9,2.1-1.3,3.5-1.3c1.3,0,2.4,0.4,3.3,1.2c0.9,0.8,1.3,1.8,1.3,2.9c0,0.3-0.1,0.6-0.2,0.7c-0.1,0.1-0.5,0.2-1.2,0.2h-0.1
			H182.6z M182.6,206.9h6.1c-0.1-0.7-0.4-1.3-0.9-1.8c-0.5-0.5-1.2-0.7-1.9-0.7c-0.8,0-1.5,0.2-2.1,0.7
			C183.2,205.6,182.8,206.2,182.6,206.9z"/>
		<path fill="#808080" d="M193.7,208.2c0.1,0.9,0.4,1.6,0.9,2.1c0.6,0.5,1.3,0.7,2.3,0.7c0.7,0,1.5-0.2,2.4-0.6
			c0.9-0.4,1.4-0.6,1.6-0.6c0.2,0,0.3,0.1,0.5,0.2c0.1,0.1,0.2,0.3,0.2,0.4c0,0.2-0.1,0.3-0.2,0.5c-0.1,0.1-0.3,0.3-0.6,0.4
			c-0.6,0.3-1.3,0.5-1.9,0.7c-0.7,0.2-1.3,0.2-2,0.2c-1.4,0-2.6-0.4-3.4-1.2c-0.9-0.8-1.3-1.9-1.3-3.3c0-1.4,0.5-2.5,1.4-3.4
			c0.9-0.9,2.1-1.3,3.5-1.3c1.3,0,2.4,0.4,3.3,1.2c0.9,0.8,1.3,1.8,1.3,2.9c0,0.3-0.1,0.6-0.2,0.7c-0.1,0.1-0.5,0.2-1.2,0.2H200
			H193.7z M193.8,206.9h6.1c-0.1-0.7-0.4-1.3-0.9-1.8c-0.5-0.5-1.2-0.7-1.9-0.7c-0.8,0-1.5,0.2-2.1,0.7
			C194.3,205.6,193.9,206.2,193.8,206.9z"/>
		<path fill="#808080" d="M206.3,208.5v2.8c0,0.2-0.1,0.5-0.2,0.6c-0.1,0.1-0.2,0.2-0.4,0.2H204c-0.2,0-0.4-0.1-0.6-0.2
			c-0.1-0.1-0.2-0.3-0.2-0.5c0-0.2,0.1-0.4,0.2-0.5c0.1-0.1,0.5-0.1,0.9-0.1h0.4v-9.6h-0.4c-0.5,0-0.9,0-1-0.1
			c-0.2-0.1-0.2-0.3-0.2-0.5c0-0.2,0.1-0.4,0.2-0.5c0.1-0.1,0.3-0.2,0.6-0.2h1.8c0.2,0,0.3,0,0.4,0.1c0.1,0.1,0.1,0.2,0.1,0.3v6.7
			l2.7-2.3c-0.2-0.1-0.4-0.2-0.5-0.3c-0.1-0.1-0.1-0.2-0.1-0.4c0-0.2,0.1-0.3,0.2-0.4c0.1-0.1,0.3-0.1,0.6-0.1h2.5
			c0.2,0,0.4,0.1,0.5,0.2c0.1,0.1,0.2,0.3,0.2,0.5c0,0.4-0.3,0.6-0.9,0.7c-0.1,0-0.2,0-0.3,0c-0.3,0-0.5,0.1-0.8,0.3
			c-0.3,0.2-0.6,0.4-0.9,0.7l-1.4,1.2l3.6,3.9h0.8c0.3,0,0.5,0,0.6,0.1c0.1,0.1,0.2,0.3,0.2,0.5c0,0.2-0.1,0.4-0.2,0.5
			c-0.1,0.1-0.3,0.2-0.6,0.2H210c-0.3,0-0.5,0-0.6-0.1c-0.1-0.1-0.2-0.2-0.2-0.5c0-0.2,0.1-0.3,0.2-0.4c0.1-0.1,0.3-0.2,0.5-0.3
			l-2.8-3L206.3,208.5z"/>
		<path fill="#808080" d="M218.5,201.2h-1.6c-0.6,0-1,0-1.1-0.1c-0.2-0.1-0.2-0.3-0.2-0.5c0-0.2,0.1-0.4,0.2-0.5
			c0.1-0.1,0.3-0.2,0.6-0.2h3.1c0.2,0,0.3,0,0.4,0.1c0.1,0.1,0.1,0.2,0.1,0.3v10.6h2.9c0.2,0,0.4,0.1,0.5,0.2
			c0.1,0.1,0.2,0.3,0.2,0.5c0,0.3-0.1,0.4-0.2,0.5c-0.1,0.1-0.3,0.1-0.6,0.1h-6.9c-0.2,0-0.4-0.1-0.6-0.2c-0.1-0.1-0.2-0.3-0.2-0.5
			c0-0.2,0.1-0.4,0.2-0.5c0.1-0.1,0.3-0.2,0.6-0.2h2.6V201.2z"/>
		<path fill="#808080" d="M228.6,214.5h0.4c0.5,0,0.8,0,0.9,0.1c0.2,0.1,0.2,0.3,0.2,0.5c0,0.2-0.1,0.4-0.2,0.5
			c-0.1,0.1-0.3,0.2-0.6,0.2h-4.3c-0.3,0-0.5,0-0.6-0.2c-0.1-0.1-0.2-0.3-0.2-0.5c0-0.2,0.1-0.4,0.2-0.5c0.1-0.1,0.3-0.2,0.5-0.2h2
			l1.5-3l-3.4-6.7c-0.4,0-0.7-0.1-0.8-0.2c-0.2-0.1-0.2-0.3-0.2-0.5c0-0.2,0.1-0.4,0.2-0.5c0.1-0.1,0.3-0.2,0.6-0.2h2.6
			c0.4,0,0.6,0,0.7,0.1c0.1,0.1,0.2,0.3,0.2,0.5c0,0.2-0.1,0.4-0.2,0.5c-0.2,0.1-0.4,0.2-0.9,0.2h-0.3l2.5,5.2l2.6-5.2h-0.4
			c-0.4,0-0.7-0.1-0.9-0.2c-0.2-0.1-0.2-0.3-0.2-0.5c0-0.2,0.1-0.4,0.2-0.5c0.1-0.1,0.4-0.1,0.7-0.1h2.3c0.3,0,0.4,0.1,0.6,0.2
			c0.1,0.1,0.2,0.3,0.2,0.5c0,0.2-0.1,0.4-0.2,0.5c-0.1,0.1-0.4,0.2-0.7,0.2L228.6,214.5z"/>
		<path fill="#808080" d="M236.9,212.3c-0.1,0.3-0.3,0.5-0.4,0.6c-0.1,0.1-0.3,0.2-0.4,0.2c-0.2,0-0.3-0.1-0.5-0.2
			c-0.1-0.1-0.2-0.3-0.2-0.5c0,0,0-0.1,0-0.2c0-0.1,0-0.1,0.1-0.2l5.9-12.6c0.2-0.3,0.3-0.5,0.4-0.7c0.1-0.1,0.3-0.2,0.4-0.2
			c0.2,0,0.3,0.1,0.5,0.2c0.1,0.1,0.2,0.3,0.2,0.5c0,0,0,0.1,0,0.2c0,0.1,0,0.1-0.1,0.2L236.9,212.3z"/>
		<path fill="#808080" d="M252.7,207.9l-6.9-3.1c-0.3-0.1-0.5-0.3-0.6-0.4c-0.1-0.1-0.2-0.3-0.2-0.4c0-0.2,0.1-0.3,0.2-0.4
			c0.1-0.1,0.3-0.2,0.4-0.2c0.1,0,0.2,0,0.3,0.1c0.1,0,0.3,0.1,0.4,0.2l7.5,3.4c0,0,0.1,0,0.1,0.1c0.6,0.2,0.8,0.5,0.8,0.8
			c0,0.3-0.3,0.6-0.8,0.8c-0.1,0-0.1,0-0.1,0.1l-7.5,3.5l0,0c-0.3,0.1-0.6,0.2-0.7,0.2c-0.2,0-0.3-0.1-0.4-0.2
			c-0.1-0.1-0.2-0.3-0.2-0.5c0-0.2,0.1-0.3,0.2-0.4c0.1-0.1,0.3-0.3,0.6-0.4L252.7,207.9z"/>
	</g>
</g>
</svg>
