<?xml version="1.0" encoding="utf-8"?>
<!-- Generator: Adobe Illustrator 16.0.0, SVG Export Plug-In . SVG Version: 6.00 Build 0)  -->
<!DOCTYPE svg PUBLIC "-//W3C//DTD SVG 1.1//EN" "http://www.w3.org/Graphics/SVG/1.1/DTD/svg11.dtd">
<svg version="1.1" id="Layer_1" xmlns="http://www.w3.org/2000/svg" xmlns:xlink="http://www.w3.org/1999/xlink" x="0px" y="0px"
	 width="479.756px" height="140.615px" viewBox="-50 0 600 140.615" enable-background="new 0 0 479.756 140.615"
	 xml:space="preserve">
<g>
	<g>
		<g>
			<path fill="#233269" d="M37.651,42.798h11.108v61.105H37.651v-27.07h-26.54v27.07H0V42.798h11.111v24.426h26.54V42.798z"/>
			<path fill="#233269" d="M101.48,80.799c0,3.644-0.52,6.965-1.584,9.966c-1.053,2.996-2.555,5.554-4.5,7.668
				c-1.938,2.117-4.27,3.765-7.003,4.938c-2.741,1.177-5.751,1.765-9.045,1.765c-3.287,0-6.284-0.588-8.991-1.765
				c-2.699-1.173-5.024-2.82-6.962-4.938c-1.938-2.114-3.46-4.672-4.54-7.668c-1.094-3.001-1.633-6.322-1.633-9.966
				c0-3.645,0.539-6.948,1.633-9.918c1.08-2.968,2.617-5.512,4.582-7.626s4.304-3.747,7.01-4.894c2.699-1.145,5.668-1.719,8.9-1.719
				c3.239,0,6.221,0.574,8.948,1.719c2.741,1.146,5.08,2.779,7.018,4.894c1.938,2.114,3.453,4.658,4.54,7.626
				C100.94,73.851,101.48,77.155,101.48,80.799z M90.552,80.799c0-4.581-0.983-8.211-2.955-10.89
				c-1.973-2.671-4.721-4.011-8.25-4.011c-3.523,0-6.271,1.34-8.243,4.011c-1.965,2.679-2.948,6.309-2.948,10.89
				c0,4.644,0.982,8.318,2.948,11.021c1.972,2.706,4.72,4.056,8.243,4.056c3.529,0,6.276-1.35,8.25-4.056
				C89.569,89.118,90.552,85.443,90.552,80.799z"/>
			<path fill="#233269" d="M124.048,96.229c2.823,0,4.886-0.336,6.18-1.011c1.288-0.678,1.938-1.841,1.938-3.484
				c0-1.529-0.693-2.793-2.07-3.793c-1.384-0.999-3.661-2.086-6.837-3.263c-1.938-0.706-3.724-1.453-5.335-2.246
				c-1.613-0.795-3.012-1.72-4.188-2.778c-1.175-1.059-2.102-2.336-2.773-3.838c-0.678-1.495-1.019-3.331-1.019-5.509
				c0-4.231,1.564-7.567,4.679-10.007s7.35-3.657,12.692-3.657c2.707,0,5.287,0.249,7.759,0.747
				c2.471,0.502,4.325,0.986,5.556,1.457l-1.936,8.641c-1.177-0.529-2.673-1.015-4.5-1.454c-1.82-0.442-3.938-0.664-6.353-0.664
				c-2.172,0-3.937,0.37-5.287,1.104c-1.351,0.737-2.029,1.865-2.029,3.395c0,0.766,0.132,1.44,0.395,2.028
				c0.271,0.589,0.72,1.131,1.371,1.633c0.644,0.498,1.502,0.997,2.56,1.499c1.053,0.498,2.353,1.014,3.875,1.539
				c2.526,0.942,4.679,1.869,6.438,2.778c1.756,0.91,3.225,1.938,4.359,3.087c1.149,1.146,1.986,2.453,2.52,3.925
				c0.526,1.467,0.789,3.231,0.789,5.29c0,4.405-1.626,7.744-4.886,10.005c-3.268,2.263-7.924,3.394-13.979,3.394
				c-4.057,0-7.322-0.339-9.787-1.014c-2.471-0.672-4.208-1.219-5.204-1.63l1.854-8.907c1.584,0.651,3.481,1.271,5.681,1.852
				C118.719,95.938,121.232,96.229,124.048,96.229z"/>
			<path fill="#233269" d="M151.302,45.619l10.657-1.762v13.931h16.403v8.904h-16.403v18.782c0,3.702,0.596,6.346,1.771,7.935
				c1.177,1.588,3.17,2.381,5.994,2.381c1.938,0,3.654-0.208,5.163-0.619c1.495-0.405,2.685-0.793,3.571-1.146l1.759,8.468
				c-1.232,0.529-2.852,1.069-4.845,1.63c-2.006,0.557-4.36,0.837-7.059,0.837c-3.295,0-6.035-0.438-8.243-1.321
				c-2.2-0.883-3.952-2.163-5.24-3.837c-1.3-1.676-2.207-3.703-2.739-6.084c-0.526-2.38-0.789-5.097-0.789-8.156V45.619z"/>
		</g>
		<g>
			<path fill="#233269" d="M336.925,42.178c8.872,0,15.675,1.62,20.409,4.852c4.727,3.232,7.101,8.287,7.101,15.167
				c0,3.585-0.637,6.654-1.896,9.211c-1.267,2.561-3.106,4.645-5.516,6.26c-2.408,1.619-5.342,2.81-8.816,3.571
				c-3.46,0.768-7.434,1.148-11.903,1.148h-5.551V103.9h-11.114V43.677c2.588-0.585,5.454-0.983,8.595-1.19
				C331.383,42.283,334.275,42.178,336.925,42.178z M337.714,51.792c-2.815,0-5.142,0.087-6.962,0.263v20.807h5.378
				c5.349,0,9.46-0.747,12.345-2.246c2.88-1.497,4.313-4.331,4.313-8.509c0-1.996-0.373-3.675-1.135-5.027
				c-0.769-1.35-1.828-2.404-3.178-3.17c-1.349-0.764-2.954-1.308-4.809-1.633C341.811,51.955,339.833,51.792,337.714,51.792z"/>
			<path fill="#233269" d="M389.128,104.783c-3.178-0.06-5.807-0.415-7.897-1.06c-2.089-0.644-3.743-1.57-4.982-2.778
				c-1.231-1.2-2.104-2.702-2.603-4.495c-0.498-1.792-0.748-3.837-0.748-6.128V37.245l10.673-1.766v52.815
				c0,1.294,0.097,2.377,0.305,3.259c0.207,0.886,0.58,1.634,1.106,2.254c0.527,0.614,1.245,1.086,2.16,1.407
				c0.912,0.325,2.076,0.575,3.487,0.747L389.128,104.783z"/>
			<path fill="#233269" d="M437.444,102.492c-2.063,0.526-4.734,1.073-8.028,1.626c-3.295,0.558-6.907,0.841-10.838,0.841
				c-3.709,0-6.811-0.529-9.312-1.588c-2.499-1.059-4.492-2.526-5.994-4.408c-1.501-1.879-2.573-4.132-3.218-6.744
				c-0.649-2.616-0.97-5.481-0.97-8.599V57.785h10.674v24.16c0,4.938,0.709,8.464,2.16,10.581c1.441,2.114,3.946,3.177,7.544,3.177
				c1.288,0,2.658-0.059,4.098-0.18c1.438-0.114,2.505-0.264,3.212-0.439V57.785h10.672V102.492z"/>
			<path fill="#233269" d="M460.974,96.228c2.822,0,4.886-0.335,6.173-1.014c1.301-0.675,1.938-1.837,1.938-3.48
				c0-1.529-0.693-2.789-2.063-3.793c-1.384-0.999-3.667-2.083-6.837-3.263c-1.938-0.703-3.724-1.453-5.329-2.249
				c-1.62-0.792-3.019-1.717-4.193-2.779c-1.177-1.055-2.104-2.332-2.781-3.834c-0.68-1.498-1.011-3.336-1.011-5.509
				c0-4.234,1.563-7.567,4.678-10.007c3.114-2.439,7.336-3.661,12.691-3.661c2.699,0,5.289,0.253,7.766,0.751
				c2.464,0.502,4.318,0.986,5.551,1.453l-1.938,8.645c-1.177-0.533-2.673-1.018-4.5-1.457c-1.826-0.44-3.943-0.661-6.353-0.661
				c-2.172,0-3.931,0.367-5.286,1.101c-1.358,0.737-2.036,1.868-2.036,3.395c0,0.765,0.139,1.443,0.401,2.031
				c0.264,0.584,0.72,1.131,1.37,1.63c0.65,0.498,1.494,1,2.561,1.497c1.053,0.499,2.354,1.015,3.876,1.544
				c2.533,0.942,4.679,1.865,6.437,2.778c1.771,0.91,3.226,1.938,4.359,3.084c1.149,1.148,1.98,2.456,2.52,3.924
				c0.526,1.47,0.789,3.235,0.789,5.291c0,4.408-1.633,7.743-4.886,10.007c-3.266,2.263-7.932,3.395-13.979,3.395
				c-4.057,0-7.322-0.336-9.786-1.014c-2.478-0.675-4.208-1.222-5.204-1.63l1.854-8.907c1.592,0.651,3.475,1.267,5.689,1.852
				C455.645,95.938,458.164,96.228,460.974,96.228z"/>
		</g>
	</g>
	<g>
		<path fill="#F47422" d="M249.927,140.615L195.081,85.77c-8.526-8.527-8.526-22.398,0-30.924L249.927,0l54.846,54.846
			c4.125,4.131,6.408,9.623,6.408,15.463s-2.283,11.333-6.408,15.461L249.927,140.615z M249.927,14.312L202.237,62
			c-4.581,4.582-4.581,12.036,0,16.617l47.69,47.69l47.69-47.69c2.215-2.218,3.432-5.173,3.432-8.308
			c0-3.138-1.217-6.09-3.432-8.309L249.927,14.312z"/>
	</g>
	<path fill-rule="evenodd" clip-rule="evenodd" fill="#F47422" d="M259.021,41.751c0,19.035,0,38.07,0,57.112
		c-4.506,0-9.018,0-13.53,0c0-12.638,0-25.399,0-38.032h-10.837v-7.865c0,0,8.262-8.921,10.837-11.215
		C250.003,41.751,254.515,41.751,259.021,41.751z"/>
</g>
</svg>
