<svg id="Layer_1" data-name="Layer 1" xmlns="http://www.w3.org/2000/svg" xmlns:xlink="http://www.w3.org/1999/xlink" viewBox="0 0 240.43 57.25"><defs><clipPath id="clip-path" transform="translate(-7250.5 -7360.17)"><rect x="7250.32" y="7359.99" width="240.79" height="57.61" style="fill:none"/></clipPath><clipPath id="clip-path-2" transform="translate(-7250.5 -7360.17)"><path d="M7256.79,7361a10.35,10.35,0,0,0-6.29,9.49v36.58a10.38,10.38,0,0,0,10.41,10.33h219.61a10.38,10.38,0,0,0,10.42-10.33v-36.58a10.34,10.34,0,0,0-6.29-9.49Z" style="fill:none"/></clipPath></defs><title>mobilede</title><g style="clip-path:url(#clip-path)"><path d="M7480.52,7417.42a10.39,10.39,0,0,0,10.41-10.32v-36.59a10.39,10.39,0,0,0-10.41-10.33H7260.91a10.38,10.38,0,0,0-10.41,10.33v36.59a10.38,10.38,0,0,0,10.41,10.32Z" transform="translate(-7250.5 -7360.17)" style="fill:#231f20"/></g><g style="clip-path:url(#clip-path-2)"><path d="M7480.52,7363.32a7.22,7.22,0,0,1,7.24,7.18v36.59a7.22,7.22,0,0,1-7.24,7.18H7260.91a7.22,7.22,0,0,1-7.24-7.18V7370.5a7.22,7.22,0,0,1,7.24-7.18" transform="translate(-7250.5 -7360.17)" style="fill:#fff"/><path d="M7260.91,7414.28a7.22,7.22,0,0,1-7.24-7.18V7370.5a7.22,7.22,0,0,1,7.24-7.18h18.43v51Z" transform="translate(-7250.5 -7360.17)" style="fill:#f47920"/><rect x="172.18" y="36.27" width="7.58" height="7.52" style="fill:#f47920"/><path d="M7286.4,7377.9h6.45v2.66h.1a7.51,7.51,0,0,1,6.65-3.34c3.08,0,5.32,1.5,6.06,4.17h.1c1-2.77,3.47-4.17,6.65-4.17,4.44,0,6.55,2.77,6.55,7.81v19h-6.74v-18.24c0-2.18-.74-3.4-2.64-3.4-2.15,0-3.52,1.46-3.52,4.47V7404h-6.75v-18.24c0-2.18-.73-3.4-2.63-3.4-2.15,0-3.52,1.46-3.52,4.47V7404h-6.75Z" transform="translate(-7250.5 -7360.17)" style="fill:#231f20"/><path d="M7323.26,7391c0,9.07,2.25,13.87,10.37,13.73,7.72,0,10.37-4.8,10.37-13.73s-2.25-13.87-10.37-13.73c-7.72,0-10.37,4.8-10.37,13.73m6.75,0c0-5.34.3-9.17,3.62-9.17,2.74,0,3.62,2.67,3.62,9.17s-.88,9.17-3.62,9.17c-3.33,0-3.62-3.83-3.62-9.17" transform="translate(-7250.5 -7360.17)" style="fill:#231f20"/><path d="M7348.32,7404h6.45v-2.77h.1a6.39,6.39,0,0,0,6,3.45c5.53,0,8.07-4,8.07-13.73s-2.54-13.73-8.07-13.73a6.31,6.31,0,0,0-5.67,3.11h-.1v-11h-6.75Zm6.75-13c0-5.68.59-8.59,3.57-8.59s3.52,2.91,3.52,8.59-.59,8.58-3.52,8.58-3.57-2.91-3.57-8.58" transform="translate(-7250.5 -7360.17)" style="fill:#231f20"/><path d="M7373.94,7369h6.74v5.72h-6.74Zm0,8.92h6.74V7404h-6.74Z" transform="translate(-7250.5 -7360.17)" style="fill:#231f20"/><rect x="136.23" y="9.19" width="6.75" height="34.64" style="fill:#231f20"/><path d="M7418,7391.84v-1.5c0-8-1.76-13.25-9.63-13.25-9.1,0-10.46,6.5-10.46,13.49,0,6.5.39,14,10.17,14,6.35,0,9.29-3.4,9.53-9.46h-6.06c-.4,3.2-1.32,4.9-3.57,4.9-2.49,0-3.32-3-3.32-6.06v-2.09Zm-13.35-4v-1c0-2.42.78-5.19,3.47-5.19s3.28,2.23,3.42,6.21Z" transform="translate(-7250.5 -7360.17)" style="fill:#231f20"/><path d="M7449.25,7404h6.45v-34.63H7449v11h-.1a6.31,6.31,0,0,0-5.67-3.11c-5.53,0-8.07,4-8.07,13.73s2.54,13.73,8.07,13.73a6.39,6.39,0,0,0,6-3.45h.1Zm-7.39-13c0-5.68.59-8.59,3.53-8.59s3.56,2.91,3.56,8.59-.59,8.58-3.56,8.58-3.53-2.91-3.53-8.58" transform="translate(-7250.5 -7360.17)" style="fill:#231f20"/><path d="M7480.25,7392v-1.5c0-8-1.76-13.24-9.63-13.24-9.09,0-10.46,6.5-10.46,13.48,0,6.5.39,14,10.17,14,6.35,0,9.29-3.4,9.53-9.46h-6.07c-.39,3.21-1.32,4.9-3.56,4.9-2.49,0-3.33-3-3.33-6.06V7392Zm-13.34-4v-1c0-2.42.78-5.18,3.47-5.18s3.28,2.23,3.42,6.21Z" transform="translate(-7250.5 -7360.17)" style="fill:#231f20"/></g></svg>