<svg id="Layer_1" data-name="Layer 1" xmlns="http://www.w3.org/2000/svg" viewBox="0 0 765.24 186.75"><title>ebay-tech</title><path d="M7081.75,7169c-16.78.55-27.2,3.58-27.2,14.63,0,7.15,5.7,14.91,20.18,14.91,19.41,0,29.77-10.58,29.77-27.93v-1.91C7097.7,7168.65,7089.31,7168.71,7081.75,7169Zm41.26,22.93c0,5.38.16,10.7.63,15.48h-17.21a100.85,100.85,0,0,1-.63-11.66c-9.3,11.44-20.37,14.73-35.72,14.73-22.77,0-35-12-35-26,0-20.16,16.58-27.27,45.37-27.93,7.87-.18,16.72-.21,24-.21v-2c0-13.5-8.66-19-23.65-19-11.13,0-19.34,4.61-20.19,12.57h-19.44c2.06-19.85,22.92-24.87,41.25-24.87,22,0,40.53,7.82,40.53,31.06Z" transform="translate(-6848.02 -7073.35)" style="fill:#fbab18"/><path d="M6921.73,7159.11c-.72-17.31-13.21-23.78-26.56-23.78-14.4,0-25.89,7.29-27.9,23.78Zm-54.86,12.3c1,16.79,12.58,26.72,28.5,26.72,11,0,20.84-4.5,24.13-14.27h19.08c-3.71,19.84-24.79,26.57-42.94,26.57-33,0-47.62-18.17-47.62-42.67,0-27,15.12-44.74,47.92-44.74,26.1,0,45.23,13.66,45.23,43.48v4.91Z" transform="translate(-6848.02 -7073.35)" style="fill:#ef3e42"/><path d="M6988.62,7197.78c17.19,0,29-12.37,29-31.05s-11.77-31.05-29-31.05-29,12.38-29,31.05S6971.52,7197.78,6988.62,7197.78Zm-47.46-107.3h18.5V7137c9.07-10.8,21.56-13.94,33.85-13.94,20.61,0,43.51,13.91,43.51,43.94,0,25.15-18.21,43.47-43.85,43.47-13.42,0-26.06-4.82-33.85-14.36a100.22,100.22,0,0,1-.63,11.29h-18.15c.31-5.87.63-13.19.63-19.11Z" transform="translate(-6848.02 -7073.35)" style="fill:#0074bc"/><path d="M7217.22,7126.1,7160,7238.44H7139.3l16.44-31.2-43-81.15h21.64l31.68,63.4,31.59-63.4Z" transform="translate(-6848.02 -7073.35)" style="fill:#7dc242"/><path d="M7225.56,7126.1h1.54v2.11h2.35v1.07h-2.35v4.58c0,.85.24,1.31,1.21,1.31a9.41,9.41,0,0,0,1.19-.09v1.08a12.39,12.39,0,0,1-1.49.09c-1.56,0-2.45-.51-2.45-2.28v-4.69h-2.08v-1.07h2.08Z" transform="translate(-6848.02 -7073.35)" style="fill:#231f20"/><path d="M7231.5,7130c0-.6,0-1.17-.06-1.8h1.44c0,.39.06.85.06,1.4h0a4,4,0,0,1,3.35-1.71,2.87,2.87,0,0,1,2.89,2,3.77,3.77,0,0,1,3.28-2c2.26,0,3.65,1.1,3.65,3.69v4.55h-1.55v-4c0-1.93-.56-3.2-2.24-3.2-1.37,0-2.76.94-2.76,3.55v3.63h-1.54v-4.07c0-2.13-.73-3.1-2.16-3.1s-2.85,1-2.85,3.32v3.85h-1.54Z" transform="translate(-6848.02 -7073.35)" style="fill:#231f20"/><path d="M7217.22,7126.1,7160,7238.44H7139.3l16.44-31.2-43-81.15h21.64l31.68,63.4,31.59-63.4Z" transform="translate(-6848.02 -7073.35)" style="fill:#7dc242"/><rect x="735.36" width="12.45" height="12.45" style="fill:#ef3e42"/><rect x="735.36" y="69.72" width="12.45" height="12.45" style="fill:#ef3e42"/><rect x="700.5" y="156.87" width="12.45" height="12.45" style="fill:#fbab18"/><rect x="752.79" y="122.01" width="12.45" height="12.45" style="fill:#f47920"/><rect x="508.77" width="12.45" height="12.45" style="fill:#d5d0ca"/><rect x="630.78" width="12.45" height="12.45" style="fill:#d5d0ca"/><rect x="473.91" y="17.43" width="12.45" height="12.45" style="fill:#d5d0ca"/><rect x="683.07" y="17.43" width="12.45" height="12.45" style="fill:#d5d0ca"/><rect x="404.19" y="69.72" width="12.45" height="12.45" style="fill:#d5d0ca"/><rect x="439.05" y="122.01" width="12.45" height="12.45" style="fill:#d5d0ca"/><rect x="526.2" y="156.87" width="12.45" height="12.45" style="fill:#d5d0ca"/><rect x="717.93" y="156.87" width="12.45" height="12.45" style="fill:#d5d0ca"/><rect x="561.06" y="174.3" width="12.45" height="12.45" style="fill:#d5d0ca"/><rect x="439.05" y="34.86" width="12.45" height="12.45" style="fill:#d5d0ca"/><rect x="421.62" y="139.44" width="12.45" height="12.45" style="fill:#d5d0ca"/><rect x="456.48" y="52.29" width="12.45" height="12.45" style="fill:#58595b"/><rect x="473.91" y="52.29" width="12.45" height="12.45" style="fill:#58595b"/><rect x="491.34" y="52.29" width="12.45" height="12.45" style="fill:#58595b"/><rect x="526.2" y="52.29" width="12.45" height="12.45" style="fill:#58595b"/><rect x="543.63" y="52.29" width="12.45" height="12.45" style="fill:#58595b"/><rect x="561.06" y="52.29" width="12.45" height="12.45" style="fill:#58595b"/><rect x="595.92" y="52.29" width="12.45" height="12.45" style="fill:#58595b"/><rect x="613.35" y="52.29" width="12.45" height="12.45" style="fill:#58595b"/><rect x="630.78" y="52.29" width="12.45" height="12.45" style="fill:#58595b"/><rect x="665.64" y="52.29" width="12.45" height="12.45" style="fill:#58595b"/><rect x="700.5" y="52.29" width="12.45" height="12.45" style="fill:#58595b"/><rect x="473.91" y="69.72" width="12.45" height="12.45" style="fill:#58595b"/><rect x="526.2" y="69.72" width="12.45" height="12.45" style="fill:#58595b"/><rect x="595.92" y="69.72" width="12.45" height="12.45" style="fill:#58595b"/><rect x="665.64" y="69.72" width="12.45" height="12.45" style="fill:#58595b"/><rect x="700.5" y="69.72" width="12.45" height="12.45" style="fill:#58595b"/><rect x="473.91" y="87.15" width="12.45" height="12.45" style="fill:#58595b"/><rect x="526.2" y="87.15" width="12.45" height="12.45" style="fill:#58595b"/><rect x="543.63" y="87.15" width="12.45" height="12.45" style="fill:#58595b"/><rect x="561.06" y="87.15" width="12.45" height="12.45" style="fill:#58595b"/><rect x="595.92" y="87.15" width="12.45" height="12.45" style="fill:#58595b"/><rect x="665.64" y="87.15" width="12.45" height="12.45" style="fill:#58595b"/><rect x="683.07" y="87.15" width="12.45" height="12.45" style="fill:#58595b"/><rect x="700.5" y="87.15" width="12.45" height="12.45" style="fill:#58595b"/><rect x="473.91" y="104.58" width="12.45" height="12.45" style="fill:#58595b"/><rect x="526.2" y="104.58" width="12.45" height="12.45" style="fill:#58595b"/><rect x="595.92" y="104.58" width="12.45" height="12.45" style="fill:#58595b"/><rect x="665.64" y="104.58" width="12.45" height="12.45" style="fill:#58595b"/><rect x="700.5" y="104.58" width="12.45" height="12.45" style="fill:#58595b"/><rect x="473.91" y="122.01" width="12.45" height="12.45" style="fill:#58595b"/><rect x="526.2" y="122.01" width="12.45" height="12.45" style="fill:#58595b"/><rect x="543.63" y="122.01" width="12.45" height="12.45" style="fill:#58595b"/><rect x="561.06" y="122.01" width="12.45" height="12.45" style="fill:#58595b"/><rect x="595.92" y="122.01" width="12.45" height="12.45" style="fill:#58595b"/><rect x="613.35" y="122.01" width="12.45" height="12.45" style="fill:#58595b"/><rect x="630.78" y="122.01" width="12.45" height="12.45" style="fill:#58595b"/><rect x="665.64" y="122.01" width="12.45" height="12.45" style="fill:#58595b"/><rect x="700.5" y="122.01" width="12.45" height="12.45" style="fill:#58595b"/><rect x="543.63" width="12.45" height="12.45" style="fill:#e6e7e8"/><rect x="648.21" width="12.45" height="12.45" style="fill:#fbab18"/><rect x="439.05" y="17.43" width="12.45" height="12.45" style="fill:#fbab18"/><rect x="613.35" y="17.43" width="12.45" height="12.45" style="fill:#0074bc"/><rect x="717.93" y="17.43" width="12.45" height="12.45" style="fill:#0074bc"/><rect x="508.77" y="34.86" width="12.45" height="12.45" style="fill:#7dc242"/><rect x="404.19" y="104.58" width="12.45" height="12.45" style="fill:#0074bc"/><rect x="735.36" y="104.58" width="12.45" height="12.45" style="fill:#7dc242"/><rect x="439.05" y="156.87" width="12.45" height="12.45" style="fill:#7dc242"/><rect x="491.34" y="156.87" width="12.45" height="12.45" style="fill:#ef3e42"/><rect x="561.06" y="156.87" width="12.45" height="12.45" style="fill:#fbab18"/><rect x="456.48" y="139.44" width="12.45" height="12.45" style="fill:#0074bc"/><rect x="439.05" y="87.15" width="12.45" height="12.45" style="fill:#f47920"/><rect x="473.91" width="12.45" height="12.45" style="fill:#f47920"/><rect x="439.05" width="12.45" height="12.45" style="fill:#e6e7e8"/><rect x="595.92" width="12.45" height="12.45" style="fill:#e6e7e8"/><rect x="700.5" width="12.45" height="12.45" style="fill:#e6e7e8"/><rect x="421.62" y="17.43" width="12.45" height="12.45" style="fill:#e6e7e8"/><rect x="456.48" y="17.43" width="12.45" height="12.45" style="fill:#e6e7e8"/><rect x="491.34" y="17.43" width="12.45" height="12.45" style="fill:#e6e7e8"/><rect x="508.77" y="17.43" width="12.45" height="12.45" style="fill:#e6e7e8"/><rect x="561.06" y="17.43" width="12.45" height="12.45" style="fill:#e6e7e8"/><rect x="578.49" y="17.43" width="12.45" height="12.45" style="fill:#e6e7e8"/><rect x="595.92" y="17.43" width="12.45" height="12.45" style="fill:#e6e7e8"/><rect x="630.78" y="17.43" width="12.45" height="12.45" style="fill:#e6e7e8"/><rect x="648.21" y="17.43" width="12.45" height="12.45" style="fill:#e6e7e8"/><rect x="700.5" y="17.43" width="12.45" height="12.45" style="fill:#e6e7e8"/><rect x="735.36" y="17.43" width="12.45" height="12.45" style="fill:#e6e7e8"/><rect x="404.19" y="34.86" width="12.45" height="12.45" style="fill:#e6e7e8"/><rect x="421.62" y="52.29" width="12.45" height="12.45" style="fill:#e6e7e8"/><rect x="439.05" y="52.29" width="12.45" height="12.45" style="fill:#e6e7e8"/><rect x="735.36" y="52.29" width="12.45" height="12.45" style="fill:#e6e7e8"/><rect x="752.79" y="52.29" width="12.45" height="12.45" style="fill:#e6e7e8"/><rect x="508.77" y="69.72" width="12.45" height="12.45" style="fill:#e6e7e8"/><rect x="717.93" y="69.72" width="12.45" height="12.45" style="fill:#e6e7e8"/><rect x="421.62" y="87.15" width="12.45" height="12.45" style="fill:#e6e7e8"/><rect x="456.48" y="87.15" width="12.45" height="12.45" style="fill:#e6e7e8"/><rect x="508.77" y="87.15" width="12.45" height="12.45" style="fill:#e6e7e8"/><rect x="717.93" y="87.15" width="12.45" height="12.45" style="fill:#e6e7e8"/><rect x="735.36" y="87.15" width="12.45" height="12.45" style="fill:#e6e7e8"/><rect x="421.62" y="104.58" width="12.45" height="12.45" style="fill:#e6e7e8"/><rect x="508.77" y="104.58" width="12.45" height="12.45" style="fill:#e6e7e8"/><rect x="404.19" y="122.01" width="12.45" height="12.45" style="fill:#e6e7e8"/><rect x="735.36" y="122.01" width="12.45" height="12.45" style="fill:#e6e7e8"/><rect x="700.5" y="139.44" width="12.45" height="12.45" style="fill:#e6e7e8"/><rect x="752.79" y="139.44" width="12.45" height="12.45" style="fill:#e6e7e8"/><rect x="456.48" y="156.87" width="12.45" height="12.45" style="fill:#e6e7e8"/><rect x="473.91" y="156.87" width="12.45" height="12.45" style="fill:#e6e7e8"/><rect x="508.77" y="156.87" width="12.45" height="12.45" style="fill:#e6e7e8"/><rect x="543.63" y="156.87" width="12.45" height="12.45" style="fill:#e6e7e8"/><rect x="578.49" y="156.87" width="12.45" height="12.45" style="fill:#e6e7e8"/><rect x="595.92" y="156.87" width="12.45" height="12.45" style="fill:#e6e7e8"/><rect x="648.21" y="156.87" width="12.45" height="12.45" style="fill:#e6e7e8"/><rect x="665.64" y="156.87" width="12.45" height="12.45" style="fill:#e6e7e8"/><rect x="735.36" y="156.87" width="12.45" height="12.45" style="fill:#e6e7e8"/><rect x="421.62" y="174.3" width="12.45" height="12.45" style="fill:#e6e7e8"/><rect x="473.91" y="174.3" width="12.45" height="12.45" style="fill:#e6e7e8"/><rect x="508.77" y="174.3" width="12.45" height="12.45" style="fill:#e6e7e8"/><rect x="526.2" y="174.3" width="12.45" height="12.45" style="fill:#e6e7e8"/><rect x="648.21" y="174.3" width="12.45" height="12.45" style="fill:#e6e7e8"/><rect x="665.64" width="12.45" height="12.45" style="fill:#e6e7e8"/><rect x="473.91" y="34.86" width="12.45" height="12.45" style="fill:#e6e7e8"/><rect x="491.34" y="34.86" width="12.45" height="12.45" style="fill:#e6e7e8"/><rect x="526.2" y="34.86" width="12.45" height="12.45" style="fill:#e6e7e8"/><rect x="543.63" y="34.86" width="12.45" height="12.45" style="fill:#e6e7e8"/><rect x="561.06" y="34.86" width="12.45" height="12.45" style="fill:#e6e7e8"/><rect x="578.49" y="34.86" width="12.45" height="12.45" style="fill:#e6e7e8"/><rect x="595.92" y="34.86" width="12.45" height="12.45" style="fill:#e6e7e8"/><rect x="613.35" y="34.86" width="12.45" height="12.45" style="fill:#e6e7e8"/><rect x="648.21" y="34.86" width="12.45" height="12.45" style="fill:#e6e7e8"/><rect x="665.64" y="34.86" width="12.45" height="12.45" style="fill:#e6e7e8"/><rect x="683.07" y="34.86" width="12.45" height="12.45" style="fill:#e6e7e8"/><rect x="700.5" y="34.86" width="12.45" height="12.45" style="fill:#e6e7e8"/><rect x="717.93" y="34.86" width="12.45" height="12.45" style="fill:#e6e7e8"/><rect x="508.77" y="52.29" width="12.45" height="12.45" style="fill:#e6e7e8"/><rect x="578.49" y="52.29" width="12.45" height="12.45" style="fill:#e6e7e8"/><rect x="648.21" y="52.29" width="12.45" height="12.45" style="fill:#e6e7e8"/><rect x="683.07" y="52.29" width="12.45" height="12.45" style="fill:#e6e7e8"/><rect x="717.93" y="52.29" width="12.45" height="12.45" style="fill:#e6e7e8"/><rect x="491.34" y="69.72" width="12.45" height="12.45" style="fill:#e6e7e8"/><rect x="561.06" y="69.72" width="12.45" height="12.45" style="fill:#e6e7e8"/><rect x="578.49" y="69.72" width="12.45" height="12.45" style="fill:#e6e7e8"/><rect x="613.35" y="69.72" width="12.45" height="12.45" style="fill:#e6e7e8"/><rect x="648.21" y="69.72" width="12.45" height="12.45" style="fill:#e6e7e8"/><rect x="491.34" y="87.15" width="12.45" height="12.45" style="fill:#e6e7e8"/><rect x="630.78" y="87.15" width="12.45" height="12.45" style="fill:#e6e7e8"/><rect x="648.21" y="87.15" width="12.45" height="12.45" style="fill:#e6e7e8"/><rect x="456.48" y="104.58" width="12.45" height="12.45" style="fill:#e6e7e8"/><rect x="543.63" y="104.58" width="12.45" height="12.45" style="fill:#e6e7e8"/><rect x="578.49" y="104.58" width="12.45" height="12.45" style="fill:#e6e7e8"/><rect x="613.35" y="104.58" width="12.45" height="12.45" style="fill:#e6e7e8"/><rect x="630.78" y="104.58" width="12.45" height="12.45" style="fill:#e6e7e8"/><rect x="648.21" y="104.58" width="12.45" height="12.45" style="fill:#e6e7e8"/><rect x="717.93" y="104.58" width="12.45" height="12.45" style="fill:#e6e7e8"/><rect x="456.48" y="122.01" width="12.45" height="12.45" style="fill:#e6e7e8"/><rect x="491.34" y="122.01" width="12.45" height="12.45" style="fill:#e6e7e8"/><rect x="508.77" y="122.01" width="12.45" height="12.45" style="fill:#e6e7e8"/><rect x="578.49" y="122.01" width="12.45" height="12.45" style="fill:#e6e7e8"/><rect x="648.21" y="122.01" width="12.45" height="12.45" style="fill:#e6e7e8"/><rect x="683.07" y="122.01" width="12.45" height="12.45" style="fill:#e6e7e8"/><rect x="717.93" y="122.01" width="12.45" height="12.45" style="fill:#e6e7e8"/><rect x="491.34" y="139.44" width="12.45" height="12.45" style="fill:#e6e7e8"/><rect x="526.2" y="139.44" width="12.45" height="12.45" style="fill:#e6e7e8"/><rect x="543.63" y="139.44" width="12.45" height="12.45" style="fill:#e6e7e8"/><rect x="561.06" y="139.44" width="12.45" height="12.45" style="fill:#e6e7e8"/><rect x="578.49" y="139.44" width="12.45" height="12.45" style="fill:#e6e7e8"/><rect x="595.92" y="139.44" width="12.45" height="12.45" style="fill:#e6e7e8"/><rect x="613.35" y="139.44" width="12.45" height="12.45" style="fill:#e6e7e8"/><rect x="630.78" y="139.44" width="12.45" height="12.45" style="fill:#e6e7e8"/><rect x="665.64" y="139.44" width="12.45" height="12.45" style="fill:#e6e7e8"/><rect x="683.07" y="139.44" width="12.45" height="12.45" style="fill:#e6e7e8"/><rect x="717.93" y="139.44" width="12.45" height="12.45" style="fill:#e6e7e8"/><rect x="630.78" y="156.87" width="12.45" height="12.45" style="fill:#e6e7e8"/><rect x="717.93" y="174.3" width="12.45" height="12.45" style="fill:#e6e7e8"/></svg>