<svg xmlns="http://www.w3.org/2000/svg" xmlns:xlink="http://www.w3.org/1999/xlink" viewBox="0 0 346.094 61.837">
<g>
	<path d="M55.011,32.316c0,15.788-9.456,29.356-27.875,29.356C9.292,61.672,0,48.762,0,32.481C0,16.035,10.278,3.372,27.875,3.372
		C44.486,3.372,55.011,14.966,55.011,32.316z M12.663,32.234c0,11.101,4.852,19.488,14.884,19.488
		c10.937,0,14.801-9.127,14.801-19.242c0-10.772-4.44-19.16-14.966-19.16C17.104,13.321,12.663,21.215,12.663,32.234z"></path>
	<path d="M60.118,18.255v-3.783C60.118,5.674,63.983,0,73.933,0c1.974,0,3.701,0.247,4.77,0.576v9.127
		c-0.987-0.165-1.809-0.247-2.713-0.247c-3.207,0-4.112,1.974-4.112,5.345v3.454h13.075v-3.783C84.952,5.674,88.981,0,98.848,0
		c1.974,0,3.701,0.247,4.77,0.576v9.127c-0.987-0.165-1.809-0.247-2.713-0.247c-3.207,0-4.112,1.974-4.112,5.345v3.454h7.401v8.88
		h-7.401V60.85H84.952V27.136H71.877V60.85H60.118V27.136"></path>
	<path d="M116.773,48.022c0.905,3.454,3.7,5.345,8.059,5.345c4.358,0,5.92-1.562,5.92-4.194c0-2.713-1.809-3.782-7.894-5.263
		c-13.897-3.454-16.117-7.729-16.117-13.732c0-6.249,4.358-12.91,17.186-12.91c12.91,0,17.351,7.072,17.68,12.828h-11.183
		c-0.412-1.562-1.48-4.522-6.99-4.522c-3.865,0-5.181,1.727-5.181,3.618c0,2.138,1.316,3.125,8.223,4.769
		c14.226,3.289,16.281,8.141,16.281,14.39c0,7.072-5.427,13.486-18.337,13.486c-12.992,0-18.255-6.25-19.242-13.814H116.773z"></path>
	<path d="M185.599,47.118c-1.398,7.072-6.414,14.719-19.077,14.719c-13.239,0-20.064-9.127-20.064-21.956
		c0-12.581,7.647-22.613,20.64-22.613c14.308,0,18.337,10.361,18.501,15.13h-11.43c-0.74-3.454-2.714-5.838-7.319-5.838
		c-5.427,0-8.469,4.687-8.469,12.91c0,9.127,3.289,13.239,8.387,13.239c4.111,0,6.25-2.385,7.318-5.592H185.599z"></path>
	<path d="M191.024,29.85c0-4.276,0-7.977-0.082-11.594h11.594c0.165,0.986,0.329,5.18,0.329,7.483
		c1.892-4.852,6.414-8.388,13.65-8.47v11.265c-8.552-0.247-13.65,2.056-13.65,13.732V60.85h-11.841V29.85z"></path>
	<path d="M230.002,42.102c0,5.345,2.714,10.525,8.552,10.525c4.934,0,6.332-1.973,7.483-4.522h11.759
		c-1.48,5.181-6.167,13.732-19.488,13.732c-14.062,0-20.146-10.443-20.146-21.626c0-13.403,6.825-22.942,20.558-22.942
		c14.555,0,19.57,10.607,19.57,21.215c0,1.48,0,2.384-0.164,3.618H230.002z M246.448,34.866c-0.082-4.934-2.056-9.127-7.812-9.127
		c-5.591,0-7.894,3.865-8.387,9.127H246.448z"></path>
	<path d="M274.322,42.102c0,5.345,2.714,10.525,8.552,10.525c4.934,0,6.332-1.973,7.483-4.522h11.759
		c-1.48,5.181-6.167,13.732-19.488,13.732c-14.062,0-20.146-10.443-20.146-21.626c0-13.403,6.825-22.942,20.558-22.942
		c14.555,0,19.57,10.607,19.57,21.215c0,1.48,0,2.384-0.164,3.618H274.322z M290.768,34.866c-0.082-4.934-2.056-9.127-7.812-9.127
		c-5.591,0-7.894,3.865-8.387,9.127H290.768z"></path>
	<path d="M307.856,29.027c0-3.618,0-7.565-0.082-10.772h11.43c0.247,1.151,0.411,4.111,0.493,5.427
		c1.398-2.631,4.852-6.414,12.335-6.414c8.552,0,14.062,5.838,14.062,16.528V60.85h-11.759V35.112c0-4.852-1.562-8.305-6.825-8.305
		c-5.017,0-7.812,2.796-7.812,10.361V60.85h-11.841V29.027z"></path>
</g>
</svg>