<?xml version="1.0" encoding="utf-8"?>
<!-- Generator: Adobe Illustrator 21.0.2, SVG Export Plug-In . SVG Version: 6.00 Build 0)  -->
<svg version="1.1" xmlns="http://www.w3.org/2000/svg" xmlns:xlink="http://www.w3.org/1999/xlink" x="0px" y="0px"
	 viewBox="0 0 175 60" style="enable-background:new 0 0 175 60;" xml:space="preserve">
<g id="Layer_1" style="display:none;">
	<title>AMP-Brand-Blue</title>
	<g style="display:inline;">
		<path style="fill:#0379C4;" d="M92.9,34.3h7.1l-2.4-7c-0.2-0.4-0.3-1-0.5-1.6c-0.2-0.6-0.4-1.3-0.6-2c-0.2,0.7-0.4,1.4-0.6,2
			c-0.2,0.6-0.4,1.1-0.6,1.6L92.9,34.3L92.9,34.3z M109.6,44.1h-4.7c-0.5,0-0.9-0.1-1.3-0.4c-0.3-0.2-0.6-0.5-0.7-0.9l-1.5-4.5h-9.8
			L90,42.8c-0.1,0.3-0.3,0.6-0.7,0.9c-0.3,0.3-0.8,0.4-1.3,0.4h-4.7l10-25.6h6.1L109.6,44.1L109.6,44.1z M130.6,33.7
			c0.2,0.5,0.4,1,0.6,1.5c0.2-0.5,0.4-1,0.6-1.5c0.2-0.5,0.5-1,0.7-1.4l6.6-13c0.1-0.2,0.2-0.4,0.4-0.5c0.1-0.1,0.3-0.2,0.4-0.3
			c0.2-0.1,0.3-0.1,0.5-0.1h5.3v25.6h-5.3V29.3c0-0.7,0-1.5,0.1-2.3l-6.9,13.2c-0.2,0.4-0.5,0.7-0.9,0.9c-0.4,0.2-0.8,0.3-1.2,0.3
			h-0.8c-0.5,0-0.9-0.1-1.2-0.3c-0.4-0.2-0.6-0.5-0.9-0.9L121.8,27c0,0.4,0.1,0.8,0.1,1.2c0,0.4,0,0.8,0,1.1v14.7h-5.3V18.5h5.3
			c0.2,0,0.4,0,0.5,0.1c0.2,0.1,0.3,0.1,0.4,0.3c0.1,0.1,0.2,0.3,0.4,0.5l6.7,13C130.1,32.8,130.3,33.3,130.6,33.7 M161,31h3.1
			c1.6,0,2.7-0.4,3.4-1.1c0.7-0.7,1-1.8,1-3.1c0-0.6-0.1-1.1-0.3-1.6c-0.2-0.5-0.4-0.9-0.8-1.2c-0.4-0.3-0.8-0.6-1.4-0.8
			c-0.6-0.2-1.2-0.3-2-0.3H161L161,31L161,31z M161,35.5v8.6h-6V18.4h9.1c1.8,0,3.4,0.2,4.7,0.6c1.3,0.4,2.4,1,3.2,1.8
			c0.8,0.8,1.5,1.6,1.9,2.7c0.4,1,0.6,2.1,0.6,3.3c0,1.3-0.2,2.5-0.6,3.5c-0.4,1.1-1.1,2-1.9,2.7c-0.9,0.8-1.9,1.4-3.2,1.8
			c-1.3,0.4-2.9,0.6-4.6,0.6L161,35.5L161,35.5z M40.7,27.3L28,48.2h-2.3l2.3-13.6l-7,0h-0.1c-0.6,0-1.1-0.5-1.1-1.1
			c0-0.3,0.3-0.7,0.3-0.7l12.7-20.9l2.3,0l-2.3,13.7l7.1,0l0.1,0c0.6,0,1.2,0.5,1.2,1.1C40.9,26.8,40.8,27.1,40.7,27.3L40.7,27.3z
			 M30.3,0C13.6,0,0,13.4,0,30c0,16.6,13.6,30,30.3,30C47,60,60.6,46.6,60.6,30C60.6,13.4,47,0,30.3,0z"/>
	</g>
</g>
<g id="Layer_2">
	<g>
		<path style="fill:#555052;" d="M54.7,29.9h-4c0-3.2,0.7-5.4,2.2-6.5s4.3-1.7,8.5-1.7c4.6,0,7.7,0.7,9.3,2c1.6,1.3,2.4,3.9,2.4,7.7
			v18.2h-4l0.3-3l-0.1,0c-1.5,2.3-4.7,3.4-9.4,3.4c-7,0-10.5-2.8-10.5-8.4c0-3.3,0.8-5.6,2.3-6.9c1.6-1.3,4.4-1.9,8.5-1.9
			c4.8,0,7.8,1,8.7,2.9l0.1,0v-3.3c0-3.2-0.4-5.2-1.3-6.1c-0.9-0.9-2.8-1.4-5.7-1.4c-5,0-7.4,1.4-7.4,4.2
			C54.7,29.2,54.7,29.5,54.7,29.9z M61.2,36.1c-3.1,0-5.1,0.3-6.1,1c-0.9,0.6-1.4,2.1-1.4,4.2c0,2.2,0.5,3.7,1.4,4.4
			c0.9,0.7,2.8,1.1,5.6,1.1c5.7,0,8.5-1.7,8.5-5.2c0-2.2-0.6-3.6-1.7-4.4C66.5,36.5,64.4,36.1,61.2,36.1z"/>
		<path style="fill:#555052;" d="M84.7,10.3v39.4h-4V10.3H84.7z"/>
		<path style="fill:#555052;" d="M95.8,10.3v39.4h-4V10.3H95.8z"/>
		<path style="fill:#8CC070;" d="M122.1,41.4h4.1l0,1c0,2.9-0.9,4.9-2.6,6c-1.7,1.1-4.8,1.7-9.2,1.7c-5.1,0-8.4-0.9-10-2.8
			c-1.6-1.8-2.4-5.7-2.4-11.7c0-5.5,0.8-9.2,2.4-11.1s4.7-2.8,9.4-2.8c5.1,0,8.4,0.8,10,2.5c1.6,1.6,2.4,5.1,2.4,10.3v2.2h-19.8
			c0,4.3,0.5,7.1,1.4,8.3c0.9,1.2,3.1,1.8,6.5,1.8c3.3,0,5.4-0.3,6.3-0.8c1-0.6,1.5-1.8,1.5-3.7L122.1,41.4L122.1,41.4z M122.1,33.5
			l0-1.3c0-3-0.5-4.9-1.5-5.8s-3.1-1.3-6.3-1.3c-3.3,0-5.4,0.5-6.4,1.6c-1,1-1.5,3.3-1.5,6.9H122.1z M119,10.7l2.1,2.8l-8.5,5.2
			l-1.4-2.1L119,10.7z"/>
	</g>
</g>
</svg>
