<?xml version="1.0" encoding="UTF-8" standalone="no"?>
<svg width="101px" height="101px" viewBox="0 0 101 101" version="1.1" xmlns="http://www.w3.org/2000/svg" xmlns:xlink="http://www.w3.org/1999/xlink">
    <!-- Generator: Sketch 39.1 (31720) - http://www.bohemiancoding.com/sketch -->
    <title>Combined Shape</title>
    <desc>Created with Sketch.</desc>
    <defs></defs>
    <g id="Page-1" stroke="none" stroke-width="1" fill="none" fill-rule="evenodd">
        <g id="startpage_1_0" transform="translate(-154.000000, -537.000000)" fill="#3EC446">
            <path d="M182.913322,600.386388 C180.637741,596.60729 179.328824,592.180227 179.328824,587.447451 C179.328824,573.574816 190.574816,562.328824 204.447451,562.328824 C218.320085,562.328824 229.566077,573.574816 229.566077,587.447451 C229.566077,601.320085 218.320085,612.566077 204.447451,612.566077 C200.025139,612.566077 195.869748,611.423255 192.260497,609.416831 C191.095283,611.366019 188.964107,612.671176 186.528096,612.671176 C182.84227,612.671176 179.854318,609.683224 179.854318,605.997399 C179.854318,603.643693 181.07277,601.574572 182.913322,600.386388 Z M186.365718,634.646288 C191.994098,636.812575 198.10838,638 204.5,638 C232.39038,638 255,615.39038 255,587.5 C255,559.60962 232.39038,537 204.5,537 C203.766667,537 203.036986,537.015631 202.31127,537.046578 C202.333904,537.290759 202.345473,537.538149 202.345473,537.788241 C202.345473,542.170601 198.792869,545.723205 194.41051,545.723205 C190.859371,545.723205 187.853073,543.390466 186.840395,540.173769 C167.659135,547.334243 154,565.82199 154,587.5 C154,603.656393 161.587055,618.040734 173.392638,627.284497 C174.778374,626.102013 176.576111,625.388137 178.540583,625.388137 C182.922942,625.388137 186.475546,628.940742 186.475546,633.323101 C186.475546,633.773933 186.437949,634.215983 186.365718,634.646288 Z M171.814256,584.71488 C174.629414,584.71488 176.91155,582.432744 176.91155,579.617586 C176.91155,576.802428 174.629414,574.520291 171.814256,574.520291 C168.999098,574.520291 166.716961,576.802428 166.716961,579.617586 C166.716961,582.432744 168.999098,584.71488 171.814256,584.71488 Z M213.853798,555.917794 C216.668956,555.917794 218.951093,553.635657 218.951093,550.820499 C218.951093,548.005341 216.668956,545.723205 213.853798,545.723205 C211.03864,545.723205 208.756504,548.005341 208.756504,550.820499 C208.756504,553.635657 211.03864,555.917794 213.853798,555.917794 Z M240.654006,568.844953 C243.469164,568.844953 245.751301,566.562817 245.751301,563.747659 C245.751301,560.932501 243.469164,558.650364 240.654006,558.650364 C237.838848,558.650364 235.556712,560.932501 235.556712,563.747659 C235.556712,566.562817 237.838848,568.844953 240.654006,568.844953 Z M240.706556,597.431842 C243.550736,597.431842 245.8564,595.126178 245.8564,592.281998 C245.8564,589.437818 243.550736,587.132154 240.706556,587.132154 C237.862375,587.132154 235.556712,589.437818 235.556712,592.281998 C235.556712,595.126178 237.862375,597.431842 240.706556,597.431842 Z M218.898543,631.58897 C222.294146,631.58897 225.046826,628.83629 225.046826,625.440687 C225.046826,622.045084 222.294146,619.292404 218.898543,619.292404 C215.50294,619.292404 212.75026,622.045084 212.75026,625.440687 C212.75026,628.83629 215.50294,631.58897 218.898543,631.58897 Z" id="Combined-Shape"></path>
        </g>
    </g>
</svg>